<?xml version="1.0" encoding="UTF-8"?>
<svg xmlns="http://www.w3.org/2000/svg" xmlns:xlink="http://www.w3.org/1999/xlink" width="375pt" height="374.999991pt" viewBox="0 0 375 374.999991" version="1.2">
<g id="surface1">
<path style=" stroke:none;fill-rule:nonzero;fill:rgb(100%,90.19928%,88.62915%);fill-opacity:1;" d="M 302.914062 386.4375 L 61.390625 386.4375 C 21.371094 386.4375 -11.066406 354 -11.066406 313.980469 L -11.066406 72.457031 C -11.066406 32.4375 21.371094 0 61.390625 0 L 302.914062 0 C 342.933594 0 375.371094 32.4375 375.371094 72.457031 L 375.371094 313.980469 C 375.371094 354 342.933594 386.4375 302.914062 386.4375 Z M 302.914062 386.4375 "/>
<path style=" stroke:none;fill-rule:nonzero;fill:rgb(98.81897%,34.118652%,23.139954%);fill-opacity:1;" d="M 169.59375 240.097656 C 169.59375 241.464844 169.527344 242.824219 169.390625 244.183594 C 169.257812 245.542969 169.054688 246.890625 168.785156 248.230469 C 168.519531 249.566406 168.183594 250.890625 167.785156 252.195312 C 167.386719 253.503906 166.921875 254.785156 166.394531 256.046875 C 165.867188 257.308594 165.28125 258.539062 164.632812 259.742188 C 163.984375 260.949219 163.277344 262.117188 162.511719 263.25 C 161.746094 264.386719 160.929688 265.480469 160.054688 266.535156 C 159.179688 267.59375 158.257812 268.601562 157.285156 269.566406 C 156.3125 270.53125 155.292969 271.449219 154.230469 272.3125 C 153.164062 273.179688 152.0625 273.992188 150.917969 274.75 C 149.773438 275.507812 148.59375 276.210938 147.378906 276.851562 C 146.164062 277.496094 144.921875 278.078125 143.652344 278.601562 C 142.378906 279.125 141.085938 279.582031 139.769531 279.980469 C 138.449219 280.375 137.117188 280.707031 135.765625 280.972656 C 134.417969 281.238281 133.058594 281.4375 131.6875 281.574219 C 130.316406 281.707031 128.945312 281.773438 127.570312 281.773438 C 126.191406 281.773438 124.820312 281.707031 123.449219 281.574219 C 122.078125 281.4375 120.71875 281.238281 119.371094 280.972656 C 118.019531 280.707031 116.6875 280.375 115.371094 279.980469 C 114.050781 279.582031 112.757812 279.125 111.488281 278.601562 C 110.214844 278.078125 108.972656 277.496094 107.757812 276.851562 C 106.542969 276.210938 105.367188 275.507812 104.222656 274.75 C 103.078125 273.992188 101.972656 273.179688 100.910156 272.3125 C 99.84375 271.449219 98.824219 270.53125 97.851562 269.566406 C 96.878906 268.601562 95.957031 267.59375 95.082031 266.535156 C 94.210938 265.480469 93.390625 264.386719 92.625 263.25 C 91.863281 262.117188 91.15625 260.949219 90.507812 259.742188 C 89.855469 258.539062 89.269531 257.308594 88.742188 256.046875 C 88.214844 254.785156 87.753906 253.503906 87.351562 252.195312 C 86.953125 250.890625 86.621094 249.566406 86.351562 248.230469 C 86.082031 246.890625 85.882812 245.542969 85.746094 244.183594 C 85.609375 242.824219 85.542969 241.464844 85.542969 240.097656 C 85.542969 238.734375 85.609375 237.371094 85.746094 236.011719 C 85.882812 234.65625 86.082031 233.308594 86.351562 231.96875 C 86.621094 230.628906 86.953125 229.308594 87.351562 228 C 87.753906 226.695312 88.214844 225.410156 88.742188 224.148438 C 89.269531 222.890625 89.855469 221.65625 90.507812 220.453125 C 91.15625 219.25 91.863281 218.078125 92.625 216.945312 C 93.390625 215.808594 94.210938 214.714844 95.082031 213.660156 C 95.957031 212.605469 96.878906 211.59375 97.851562 210.628906 C 98.824219 209.664062 99.84375 208.75 100.910156 207.882812 C 101.972656 207.015625 103.078125 206.207031 104.222656 205.445312 C 105.367188 204.6875 106.542969 203.988281 107.757812 203.34375 C 108.972656 202.699219 110.214844 202.117188 111.488281 201.597656 C 112.757812 201.074219 114.050781 200.613281 115.371094 200.21875 C 116.6875 199.820312 118.019531 199.492188 119.371094 199.222656 C 120.71875 198.957031 122.078125 198.757812 123.449219 198.625 C 124.820312 198.492188 126.191406 198.421875 127.570312 198.421875 C 128.945312 198.421875 130.316406 198.492188 131.6875 198.625 C 133.058594 198.757812 134.417969 198.957031 135.765625 199.222656 C 137.117188 199.492188 138.449219 199.820312 139.769531 200.21875 C 141.085938 200.613281 142.378906 201.074219 143.652344 201.597656 C 144.921875 202.117188 146.164062 202.699219 147.378906 203.34375 C 148.59375 203.988281 149.773438 204.6875 150.917969 205.445312 C 152.0625 206.207031 153.164062 207.015625 154.230469 207.882812 C 155.292969 208.75 156.3125 209.664062 157.285156 210.628906 C 158.257812 211.59375 159.179688 212.605469 160.054688 213.660156 C 160.929688 214.714844 161.746094 215.808594 162.511719 216.945312 C 163.277344 218.078125 163.984375 219.25 164.632812 220.453125 C 165.28125 221.65625 165.867188 222.890625 166.394531 224.148438 C 166.921875 225.410156 167.386719 226.695312 167.785156 228 C 168.183594 229.308594 168.519531 230.628906 168.785156 231.96875 C 169.054688 233.308594 169.257812 234.65625 169.390625 236.011719 C 169.527344 237.371094 169.59375 238.734375 169.59375 240.097656 Z M 169.59375 240.097656 "/>
<path style=" stroke:none;fill-rule:nonzero;fill:rgb(98.81897%,34.118652%,23.139954%);fill-opacity:1;" d="M 224.179688 146.339844 C 224.179688 147.703125 224.109375 149.066406 223.976562 150.425781 C 223.839844 151.78125 223.640625 153.128906 223.371094 154.46875 C 223.101562 155.808594 222.769531 157.128906 222.367188 158.4375 C 221.96875 159.742188 221.507812 161.027344 220.980469 162.289062 C 220.453125 163.546875 219.863281 164.78125 219.214844 165.984375 C 218.566406 167.1875 217.859375 168.359375 217.097656 169.492188 C 216.332031 170.628906 215.511719 171.722656 214.640625 172.777344 C 213.765625 173.832031 212.84375 174.84375 211.871094 175.808594 C 210.894531 176.773438 209.878906 177.6875 208.8125 178.554688 C 207.75 179.421875 206.644531 180.230469 205.5 180.992188 C 204.355469 181.75 203.175781 182.449219 201.964844 183.09375 C 200.75 183.738281 199.507812 184.320312 198.234375 184.839844 C 196.964844 185.363281 195.667969 185.824219 194.351562 186.21875 C 193.035156 186.617188 191.703125 186.945312 190.351562 187.214844 C 189.003906 187.480469 187.640625 187.679688 186.273438 187.8125 C 184.902344 187.945312 183.53125 188.015625 182.152344 188.015625 C 180.777344 188.015625 179.402344 187.945312 178.035156 187.8125 C 176.664062 187.679688 175.304688 187.480469 173.953125 187.214844 C 172.605469 186.945312 171.269531 186.617188 169.953125 186.21875 C 168.636719 185.824219 167.34375 185.363281 166.070312 184.839844 C 164.800781 184.320312 163.554688 183.738281 162.34375 183.09375 C 161.128906 182.449219 159.949219 181.75 158.804688 180.992188 C 157.660156 180.230469 156.558594 179.421875 155.492188 178.554688 C 154.429688 177.6875 153.410156 176.773438 152.4375 175.808594 C 151.464844 174.84375 150.539062 173.832031 149.667969 172.777344 C 148.792969 171.722656 147.976562 170.628906 147.210938 169.492188 C 146.445312 168.359375 145.738281 167.1875 145.089844 165.984375 C 144.441406 164.78125 143.855469 163.546875 143.328125 162.289062 C 142.800781 161.027344 142.335938 159.742188 141.9375 158.4375 C 141.539062 157.128906 141.203125 155.808594 140.9375 154.46875 C 140.667969 153.128906 140.464844 151.78125 140.332031 150.425781 C 140.195312 149.066406 140.128906 147.703125 140.128906 146.339844 C 140.128906 144.972656 140.195312 143.613281 140.332031 142.253906 C 140.464844 140.894531 140.667969 139.546875 140.9375 138.207031 C 141.203125 136.871094 141.539062 135.546875 141.9375 134.242188 C 142.335938 132.933594 142.800781 131.652344 143.328125 130.390625 C 143.855469 129.128906 144.441406 127.898438 145.089844 126.695312 C 145.738281 125.488281 146.445312 124.320312 147.210938 123.1875 C 147.976562 122.050781 148.792969 120.957031 149.667969 119.902344 C 150.539062 118.847656 151.464844 117.835938 152.4375 116.871094 C 153.410156 115.90625 154.429688 114.988281 155.492188 114.125 C 156.558594 113.257812 157.660156 112.445312 158.804688 111.6875 C 159.949219 110.929688 161.128906 110.230469 162.34375 109.585938 C 163.554688 108.941406 164.800781 108.359375 166.070312 107.835938 C 167.34375 107.3125 168.636719 106.855469 169.953125 106.457031 C 171.269531 106.0625 172.605469 105.730469 173.953125 105.464844 C 175.304688 105.199219 176.664062 105 178.035156 104.863281 C 179.402344 104.730469 180.777344 104.664062 182.152344 104.664062 C 183.53125 104.664062 184.902344 104.730469 186.273438 104.863281 C 187.640625 105 189.003906 105.199219 190.351562 105.464844 C 191.703125 105.730469 193.035156 106.0625 194.351562 106.457031 C 195.667969 106.855469 196.964844 107.3125 198.234375 107.835938 C 199.507812 108.359375 200.75 108.941406 201.964844 109.585938 C 203.175781 110.230469 204.355469 110.929688 205.5 111.6875 C 206.644531 112.445312 207.75 113.257812 208.8125 114.125 C 209.878906 114.988281 210.894531 115.90625 211.871094 116.871094 C 212.84375 117.835938 213.765625 118.847656 214.640625 119.902344 C 215.511719 120.957031 216.332031 122.050781 217.097656 123.1875 C 217.859375 124.320312 218.566406 125.488281 219.214844 126.695312 C 219.863281 127.898438 220.453125 129.128906 220.980469 130.390625 C 221.507812 131.652344 221.96875 132.933594 222.367188 134.242188 C 222.769531 135.546875 223.101562 136.871094 223.371094 138.207031 C 223.640625 139.546875 223.839844 140.894531 223.976562 142.253906 C 224.109375 143.613281 224.179688 144.972656 224.179688 146.339844 Z M 224.179688 146.339844 "/>
<path style=" stroke:none;fill-rule:nonzero;fill:rgb(99.21875%,56.469727%,49.409485%);fill-opacity:1;" d="M 278.761719 240.097656 C 278.761719 241.464844 278.695312 242.824219 278.558594 244.183594 C 278.425781 245.542969 278.222656 246.890625 277.953125 248.230469 C 277.6875 249.566406 277.351562 250.890625 276.953125 252.195312 C 276.554688 253.503906 276.089844 254.785156 275.5625 256.046875 C 275.035156 257.308594 274.449219 258.539062 273.800781 259.742188 C 273.152344 260.949219 272.445312 262.117188 271.679688 263.25 C 270.914062 264.386719 270.097656 265.480469 269.222656 266.535156 C 268.351562 267.59375 267.425781 268.601562 266.453125 269.566406 C 265.480469 270.53125 264.460938 271.449219 263.398438 272.3125 C 262.332031 273.179688 261.230469 273.992188 260.085938 274.75 C 258.941406 275.507812 257.761719 276.210938 256.546875 276.851562 C 255.335938 277.496094 254.089844 278.078125 252.820312 278.601562 C 251.546875 279.125 250.253906 279.582031 248.9375 279.980469 C 247.621094 280.375 246.285156 280.707031 244.9375 280.972656 C 243.585938 281.238281 242.226562 281.4375 240.855469 281.574219 C 239.488281 281.707031 238.113281 281.773438 236.738281 281.773438 C 235.359375 281.773438 233.988281 281.707031 232.617188 281.574219 C 231.25 281.4375 229.890625 281.238281 228.539062 280.972656 C 227.1875 280.707031 225.855469 280.375 224.539062 279.980469 C 223.222656 279.582031 221.925781 279.125 220.65625 278.601562 C 219.382812 278.078125 218.140625 277.496094 216.925781 276.851562 C 215.714844 276.210938 214.535156 275.507812 213.390625 274.75 C 212.246094 273.992188 211.140625 273.179688 210.078125 272.3125 C 209.011719 271.449219 207.996094 270.53125 207.019531 269.566406 C 206.046875 268.601562 205.125 267.59375 204.25 266.535156 C 203.378906 265.480469 202.558594 264.386719 201.796875 263.25 C 201.03125 262.117188 200.324219 260.949219 199.675781 259.742188 C 199.027344 258.539062 198.4375 257.308594 197.910156 256.046875 C 197.382812 254.785156 196.921875 253.503906 196.523438 252.195312 C 196.121094 250.890625 195.789062 249.566406 195.519531 248.230469 C 195.25 246.890625 195.050781 245.542969 194.914062 244.183594 C 194.78125 242.824219 194.710938 241.464844 194.710938 240.097656 C 194.710938 238.734375 194.78125 237.371094 194.914062 236.011719 C 195.050781 234.65625 195.25 233.308594 195.519531 231.96875 C 195.789062 230.628906 196.121094 229.308594 196.523438 228 C 196.921875 226.695312 197.382812 225.410156 197.910156 224.148438 C 198.4375 222.890625 199.027344 221.65625 199.675781 220.453125 C 200.324219 219.25 201.03125 218.078125 201.792969 216.945312 C 202.558594 215.808594 203.378906 214.714844 204.25 213.660156 C 205.125 212.605469 206.046875 211.59375 207.019531 210.628906 C 207.996094 209.664062 209.011719 208.75 210.078125 207.882812 C 211.140625 207.015625 212.246094 206.207031 213.390625 205.445312 C 214.535156 204.6875 215.714844 203.988281 216.925781 203.34375 C 218.140625 202.699219 219.382812 202.117188 220.65625 201.597656 C 221.925781 201.074219 223.222656 200.613281 224.539062 200.21875 C 225.855469 199.820312 227.1875 199.492188 228.539062 199.222656 C 229.890625 198.957031 231.25 198.757812 232.617188 198.625 C 233.988281 198.492188 235.359375 198.421875 236.738281 198.421875 C 238.113281 198.421875 239.488281 198.492188 240.855469 198.625 C 242.226562 198.757812 243.585938 198.957031 244.9375 199.222656 C 246.285156 199.492188 247.621094 199.820312 248.9375 200.21875 C 250.253906 200.613281 251.546875 201.074219 252.820312 201.597656 C 254.089844 202.117188 255.335938 202.699219 256.546875 203.34375 C 257.761719 203.988281 258.941406 204.6875 260.085938 205.445312 C 261.230469 206.207031 262.332031 207.015625 263.398438 207.882812 C 264.460938 208.75 265.480469 209.664062 266.453125 210.628906 C 267.425781 211.59375 268.351562 212.605469 269.222656 213.660156 C 270.097656 214.714844 270.914062 215.808594 271.679688 216.945312 C 272.445312 218.078125 273.152344 219.25 273.800781 220.453125 C 274.449219 221.65625 275.035156 222.890625 275.5625 224.148438 C 276.089844 225.410156 276.554688 226.695312 276.953125 228 C 277.351562 229.308594 277.6875 230.628906 277.953125 231.96875 C 278.222656 233.308594 278.425781 234.65625 278.558594 236.011719 C 278.695312 237.371094 278.761719 238.734375 278.761719 240.097656 Z M 278.761719 240.097656 "/>
</g>
</svg>
