<?xml version="1.0" encoding="UTF-8"?>
<svg xmlns="http://www.w3.org/2000/svg" xmlns:xlink="http://www.w3.org/1999/xlink" width="375pt" height="374.999991pt" viewBox="0 0 375 374.999991" version="1.2">
<defs>
<clipPath id="clip1">
  <path d="M 39 158 L 325 158 L 325 221.632812 L 39 221.632812 Z M 39 158 "/>
</clipPath>
</defs>
<g id="surface1">
<g clip-path="url(#clip1)" clip-rule="nonzero">
<path style=" stroke:none;fill-rule:nonzero;fill:rgb(0%,0%,0%);fill-opacity:1;" d="M 127.734375 221.800781 L 127.734375 159.363281 L 131.121094 159.363281 L 131.121094 169.1875 C 131.523438 168.75 131.890625 168.289062 132.226562 167.800781 C 135.054688 161.933594 141.019531 158.230469 147.53125 158.300781 C 155.25 158.074219 161.523438 160.929688 165.210938 167.800781 C 166.382812 169.933594 167.289062 172.179688 167.925781 174.527344 C 168.5625 176.878906 168.910156 179.273438 168.976562 181.707031 C 169.039062 184.140625 168.816406 186.550781 168.304688 188.929688 C 167.792969 191.3125 167.007812 193.597656 165.949219 195.789062 C 162.511719 203.492188 154.027344 207.320312 144.945312 205.914062 C 143.535156 205.792969 142.15625 205.5 140.816406 205.035156 C 139.476562 204.570312 138.214844 203.945312 137.03125 203.164062 C 135.847656 202.382812 134.777344 201.46875 133.824219 200.417969 C 132.871094 199.371094 132.058594 198.21875 131.390625 196.964844 L 131.390625 221.796875 Z M 131.121094 181.449219 L 131.878906 188.78125 C 133.21875 197.125 138.152344 202.058594 145.894531 202.984375 C 146.796875 203.132812 147.707031 203.203125 148.621094 203.195312 C 149.535156 203.1875 150.441406 203.101562 151.339844 202.933594 C 152.242188 202.769531 153.121094 202.53125 153.980469 202.214844 C 154.835938 201.898438 155.660156 201.511719 156.453125 201.054688 C 157.246094 200.597656 157.992188 200.074219 158.695312 199.488281 C 159.394531 198.902344 160.042969 198.257812 160.632812 197.558594 C 161.222656 196.863281 161.75 196.117188 162.214844 195.328125 C 162.675781 194.542969 163.070312 193.71875 163.390625 192.863281 C 166.402344 185.683594 166.179688 177.554688 162.792969 170.542969 C 162.453125 169.773438 162.046875 169.039062 161.585938 168.335938 C 161.125 167.632812 160.609375 166.972656 160.039062 166.351562 C 159.46875 165.730469 158.855469 165.160156 158.191406 164.640625 C 157.53125 164.121094 156.832031 163.65625 156.097656 163.25 C 155.359375 162.84375 154.59375 162.5 153.800781 162.214844 C 153.011719 161.933594 152.199219 161.714844 151.371094 161.5625 C 150.546875 161.410156 149.710938 161.324219 148.871094 161.308594 C 148.027344 161.289062 147.191406 161.339844 146.359375 161.457031 C 145.574219 161.515625 144.800781 161.632812 144.039062 161.808594 C 143.273438 161.984375 142.527344 162.222656 141.800781 162.511719 C 141.070312 162.804688 140.371094 163.152344 139.695312 163.554688 C 139.023438 163.953125 138.382812 164.402344 137.777344 164.902344 C 137.171875 165.402344 136.609375 165.949219 136.089844 166.535156 C 135.570312 167.121094 135.097656 167.746094 134.671875 168.40625 C 134.25 169.066406 133.878906 169.753906 133.5625 170.472656 C 133.246094 171.191406 132.984375 171.929688 132.78125 172.6875 C 132.058594 175.574219 131.507812 178.496094 131.121094 181.449219 Z M 238.109375 189.9375 C 237.984375 191.027344 237.757812 192.097656 237.4375 193.144531 C 237.121094 194.195312 236.707031 195.207031 236.203125 196.183594 C 235.703125 197.160156 235.117188 198.082031 234.449219 198.953125 C 233.777344 199.820312 233.035156 200.625 232.222656 201.359375 C 231.410156 202.097656 230.535156 202.753906 229.605469 203.332031 C 228.671875 203.910156 227.695312 204.402344 226.675781 204.804688 C 225.652344 205.207031 224.605469 205.515625 223.527344 205.730469 C 222.453125 205.941406 221.367188 206.058594 220.269531 206.074219 C 206.070312 206.789062 199.40625 197.359375 198.347656 186.476562 C 197.976562 183.519531 198.03125 180.574219 198.5 177.632812 C 198.96875 174.691406 199.839844 171.875 201.113281 169.183594 C 201.550781 168.265625 202.0625 167.386719 202.640625 166.550781 C 203.21875 165.714844 203.859375 164.925781 204.5625 164.191406 C 205.265625 163.457031 206.023438 162.78125 206.832031 162.164062 C 207.640625 161.546875 208.496094 161 209.390625 160.519531 C 210.289062 160.039062 211.21875 159.628906 212.179688 159.296875 C 213.140625 158.960938 214.121094 158.707031 215.125 158.527344 C 216.125 158.347656 217.132812 158.25 218.152344 158.230469 C 219.167969 158.214844 220.183594 158.273438 221.1875 158.417969 C 222.148438 158.496094 223.09375 158.652344 224.027344 158.882812 C 224.960938 159.113281 225.871094 159.414062 226.757812 159.785156 C 227.644531 160.15625 228.496094 160.59375 229.316406 161.101562 C 230.132812 161.605469 230.90625 162.171875 231.636719 162.796875 C 232.367188 163.421875 233.042969 164.101562 233.667969 164.832031 C 234.292969 165.566406 234.855469 166.34375 235.355469 167.160156 C 235.859375 167.980469 236.292969 168.835938 236.664062 169.722656 C 237.03125 170.613281 237.328125 171.523438 237.554688 172.457031 C 238.277344 175.886719 238.808594 179.347656 239.144531 182.835938 L 201.855469 182.835938 C 201.164062 192.703125 206.464844 200.636719 213.980469 202.546875 C 223.335938 204.851562 231.335938 200.792969 234.238281 191.894531 C 234.882812 189.609375 236.058594 189.289062 238.136719 189.9375 Z M 201.828125 179.675781 L 235.183594 179.675781 C 234.972656 169.164062 228.429688 161.523438 219.554688 161.4375 C 209.53125 161.273438 202.261719 168.609375 201.828125 179.675781 Z M 245.003906 190.167969 L 248.273438 190.167969 C 248.332031 191.371094 248.554688 192.542969 248.941406 193.6875 C 249.324219 194.832031 249.855469 195.902344 250.535156 196.898438 C 251.214844 197.894531 252.015625 198.78125 252.9375 199.554688 C 253.863281 200.332031 254.875 200.96875 255.972656 201.464844 C 257.351562 202.085938 258.785156 202.542969 260.265625 202.84375 C 261.75 203.140625 263.25 203.269531 264.761719 203.230469 C 266.273438 203.191406 267.761719 202.984375 269.230469 202.605469 C 270.695312 202.230469 272.101562 201.695312 273.445312 201.003906 C 274.179688 200.671875 274.847656 200.242188 275.445312 199.707031 C 276.046875 199.171875 276.554688 198.558594 276.964844 197.867188 C 277.378906 197.175781 277.675781 196.4375 277.863281 195.65625 C 278.050781 194.875 278.113281 194.082031 278.054688 193.277344 C 278.097656 192.503906 278.015625 191.746094 277.8125 190.996094 C 277.605469 190.25 277.285156 189.554688 276.851562 188.914062 C 276.421875 188.269531 275.898438 187.710938 275.28125 187.242188 C 274.667969 186.769531 273.996094 186.40625 273.261719 186.152344 C 269.664062 184.816406 265.839844 184.078125 262.175781 182.902344 C 258.355469 181.816406 254.636719 180.457031 251.019531 178.824219 C 245.113281 175.941406 244.746094 164.710938 251.433594 161.160156 C 253.144531 160.191406 254.949219 159.453125 256.84375 158.9375 C 258.742188 158.425781 260.671875 158.152344 262.636719 158.121094 C 264.601562 158.089844 266.539062 158.304688 268.453125 158.757812 C 270.363281 159.214844 272.191406 159.898438 273.929688 160.8125 C 278.25 163.195312 280.636719 168.011719 279.925781 172.894531 L 277.121094 172.894531 C 277.121094 172.757812 276.867188 172.640625 276.867188 172.5 C 276.519531 163.5625 269.007812 160.765625 260.941406 161.550781 C 258.503906 161.820312 256.191406 162.558594 254.023438 163.648438 C 253.375 163.945312 252.78125 164.335938 252.253906 164.816406 C 251.722656 165.296875 251.277344 165.847656 250.917969 166.46875 C 250.558594 167.085938 250.300781 167.746094 250.148438 168.445312 C 249.996094 169.144531 249.949219 169.851562 250.015625 170.566406 C 250.015625 171.277344 250.125 171.976562 250.34375 172.65625 C 250.5625 173.335938 250.875 173.964844 251.289062 174.546875 C 251.703125 175.128906 252.191406 175.636719 252.761719 176.066406 C 253.332031 176.496094 253.953125 176.828125 254.625 177.066406 C 258.148438 178.359375 261.886719 179.1875 265.527344 180.203125 L 274.332031 182.503906 C 275.332031 182.832031 276.261719 183.300781 277.121094 183.914062 C 277.976562 184.523438 278.726562 185.25 279.363281 186.085938 C 280 186.925781 280.5 187.835938 280.859375 188.828125 C 281.222656 189.816406 281.425781 190.835938 281.476562 191.890625 C 282.179688 196.617188 279.769531 201.261719 275.507812 203.417969 C 267.808594 207.773438 255.128906 206.621094 249.480469 201.113281 C 246.589844 198.207031 244.980469 194.261719 245.011719 190.164062 Z M 322.960938 172.898438 L 319.894531 172.898438 C 319.894531 172.484375 319.734375 172.085938 319.6875 171.769531 C 319.675781 171.195312 319.613281 170.632812 319.503906 170.070312 C 319.398438 169.511719 319.242188 168.964844 319.039062 168.429688 C 318.835938 167.898438 318.589844 167.382812 318.300781 166.894531 C 318.011719 166.402344 317.683594 165.9375 317.3125 165.503906 C 316.945312 165.066406 316.542969 164.664062 316.105469 164.300781 C 315.667969 163.933594 315.203125 163.605469 314.710938 163.320312 C 314.214844 163.03125 313.703125 162.789062 313.167969 162.589844 C 312.632812 162.390625 312.085938 162.238281 311.523438 162.132812 C 309.394531 161.519531 307.222656 161.265625 305.007812 161.375 C 302.792969 161.480469 300.65625 161.941406 298.59375 162.753906 C 297.777344 162.988281 297.019531 163.34375 296.320312 163.824219 C 295.621094 164.300781 295.015625 164.878906 294.5 165.554688 C 293.988281 166.230469 293.59375 166.96875 293.320312 167.769531 C 293.046875 168.574219 292.90625 169.398438 292.898438 170.246094 C 292.871094 171.082031 292.980469 171.894531 293.234375 172.6875 C 293.484375 173.484375 293.863281 174.210938 294.367188 174.875 C 294.871094 175.539062 295.472656 176.097656 296.171875 176.554688 C 296.867188 177.011719 297.621094 177.335938 298.429688 177.53125 L 312.445312 181.132812 C 313.964844 181.496094 315.453125 181.949219 316.914062 182.492188 C 321.386719 184.117188 324.417969 188.265625 324.554688 193.011719 C 324.585938 194.171875 324.449219 195.3125 324.136719 196.429688 C 323.824219 197.550781 323.355469 198.597656 322.726562 199.574219 C 322.097656 200.550781 321.339844 201.414062 320.449219 202.160156 C 319.5625 202.90625 318.582031 203.507812 317.511719 203.957031 C 315.886719 204.695312 314.199219 205.257812 312.457031 205.644531 C 310.710938 206.03125 308.945312 206.234375 307.160156 206.253906 C 305.375 206.269531 303.605469 206.101562 301.855469 205.75 C 300.101562 205.398438 298.40625 204.871094 296.765625 204.164062 C 296.09375 203.875 295.449219 203.539062 294.832031 203.148438 C 294.210938 202.761719 293.625 202.328125 293.070312 201.851562 C 292.519531 201.375 292.003906 200.859375 291.527344 200.304688 C 291.054688 199.75 290.625 199.160156 290.238281 198.539062 C 289.855469 197.917969 289.519531 197.273438 289.230469 196.601562 C 288.945312 195.929688 288.710938 195.238281 288.527344 194.53125 C 288.347656 193.824219 288.21875 193.105469 288.148438 192.378906 C 288.074219 191.652344 288.058594 190.921875 288.097656 190.195312 L 291.09375 190.195312 C 292.21875 195.625 295.949219 200.148438 301.066406 202.289062 C 306.183594 204.429688 312.027344 203.90625 316.679688 200.890625 C 317.378906 200.527344 318.011719 200.074219 318.578125 199.53125 C 319.148438 198.984375 319.628906 198.371094 320.019531 197.691406 C 320.410156 197.007812 320.699219 196.285156 320.886719 195.519531 C 321.070312 194.753906 321.144531 193.980469 321.105469 193.191406 C 321.140625 192.417969 321.050781 191.660156 320.839844 190.914062 C 320.625 190.167969 320.300781 189.476562 319.859375 188.835938 C 319.421875 188.199219 318.890625 187.644531 318.273438 187.179688 C 317.652344 186.714844 316.976562 186.359375 316.242188 186.113281 C 312.644531 184.773438 308.820312 184.0625 305.15625 182.863281 C 301.3125 181.792969 297.574219 180.445312 293.929688 178.828125 C 288.164062 175.992188 287.703125 164.855469 294.277344 161.304688 C 296.007812 160.296875 297.839844 159.527344 299.773438 158.996094 C 301.703125 158.464844 303.671875 158.1875 305.675781 158.164062 C 307.679688 158.144531 309.652344 158.375 311.597656 158.863281 C 313.539062 159.355469 315.386719 160.082031 317.144531 161.050781 C 318.148438 161.648438 319.042969 162.378906 319.835938 163.238281 C 320.628906 164.097656 321.28125 165.054688 321.792969 166.105469 C 322.308594 167.15625 322.660156 168.257812 322.855469 169.410156 C 323.046875 170.5625 323.070312 171.71875 322.929688 172.878906 Z M 122.164062 204.949219 C 121.558594 205.175781 120.9375 205.289062 120.289062 205.289062 C 119.644531 205.289062 119.023438 205.175781 118.417969 204.945312 C 117.816406 204.714844 117.273438 204.386719 116.789062 203.957031 C 116.308594 203.53125 115.917969 203.03125 115.617188 202.457031 L 103.699219 185.972656 L 101.96875 183.667969 L 88.140625 202.484375 C 87.859375 203.03125 87.488281 203.507812 87.03125 203.921875 C 86.574219 204.335938 86.058594 204.652344 85.488281 204.878906 C 84.914062 205.101562 84.320312 205.21875 83.707031 205.226562 C 83.089844 205.234375 82.492188 205.136719 81.914062 204.925781 L 99.734375 181.015625 L 83.15625 159.414062 C 85.613281 158.523438 88.355469 159.488281 89.722656 161.714844 L 102.074219 178.40625 L 114.5 161.78125 C 114.785156 161.242188 115.15625 160.773438 115.613281 160.371094 C 116.070312 159.972656 116.582031 159.664062 117.152344 159.453125 C 117.722656 159.238281 118.308594 159.136719 118.917969 159.140625 C 119.527344 159.144531 120.113281 159.253906 120.679688 159.476562 L 114.253906 168.011719 L 105.539062 179.355469 C 105.296875 179.574219 105.105469 179.832031 104.972656 180.132812 C 104.839844 180.433594 104.773438 180.746094 104.773438 181.074219 C 104.773438 181.402344 104.839844 181.714844 104.972656 182.015625 C 105.105469 182.3125 105.296875 182.574219 105.539062 182.792969 L 122.136719 204.949219 Z M 197.820312 159.183594 L 197.820312 162.433594 C 197.238281 162.394531 196.65625 162.386719 196.074219 162.410156 C 195.492188 162.433594 194.910156 162.488281 194.335938 162.570312 C 193.757812 162.652344 193.1875 162.765625 192.625 162.910156 C 192.058594 163.050781 191.503906 163.222656 190.957031 163.425781 C 190.410156 163.625 189.875 163.855469 189.351562 164.113281 C 188.828125 164.371094 188.320312 164.652344 187.828125 164.964844 C 187.335938 165.273438 186.859375 165.609375 186.402344 165.96875 C 185.945312 166.328125 185.503906 166.710938 185.085938 167.117188 C 184.667969 167.523438 184.273438 167.949219 183.898438 168.394531 C 183.527344 168.84375 183.175781 169.308594 182.851562 169.792969 C 182.527344 170.277344 182.230469 170.773438 181.957031 171.289062 C 181.683594 171.804688 181.4375 172.332031 181.21875 172.871094 C 181.003906 173.414062 180.8125 173.964844 180.65625 174.523438 C 180.496094 175.085938 180.363281 175.652344 180.261719 176.226562 C 180.164062 176.800781 180.09375 177.375 180.050781 177.957031 C 180.011719 178.539062 180 179.121094 180.023438 179.703125 C 180.023438 187.296875 180.023438 194.890625 180.023438 202.484375 L 180.023438 205.066406 L 176.726562 205.066406 L 176.726562 159.386719 L 179.976562 159.386719 L 179.976562 168.746094 C 183.964844 161.917969 190.117188 159.386719 197.839844 159.203125 Z M 39.257812 180.71875 L 40.710938 173.546875 C 44.695312 159.367188 60.949219 153.464844 72.132812 162.25 C 78.679688 167.390625 80.3125 174.675781 79.992188 182.886719 L 43.105469 182.886719 C 42.511719 197.550781 53.089844 206.402344 66.617188 201.882812 C 71.078125 200.257812 74.433594 196.550781 75.539062 191.945312 C 76.253906 189.644531 77.433594 189.246094 79.597656 189.914062 C 79.417969 191.316406 79.082031 192.683594 78.589844 194.011719 C 78.101562 195.339844 77.46875 196.59375 76.695312 197.777344 C 75.917969 198.964844 75.023438 200.046875 74.003906 201.027344 C 72.984375 202.007812 71.867188 202.859375 70.652344 203.589844 C 69.65625 204.132812 68.621094 204.597656 67.554688 204.980469 C 66.484375 205.363281 65.390625 205.660156 64.277344 205.871094 C 63.160156 206.082031 62.035156 206.203125 60.898438 206.238281 C 59.765625 206.269531 58.632812 206.214844 57.507812 206.070312 C 56.382812 205.925781 55.273438 205.695312 54.183594 205.378906 C 53.09375 205.058594 52.035156 204.65625 51.007812 204.171875 C 49.980469 203.6875 48.996094 203.125 48.058594 202.488281 C 47.121094 201.847656 46.238281 201.140625 45.410156 200.359375 C 42.117188 196.65625 40.128906 191.976562 39.738281 187.03125 C 39.738281 186.21875 39.46875 185.460938 39.28125 184.730469 C 39.261719 183.363281 39.253906 182.023438 39.253906 180.71875 Z M 43.152344 179.726562 L 76.507812 179.726562 C 76.300781 169.097656 69.59375 161.558594 60.648438 161.488281 C 50.691406 161.351562 43.566406 168.726562 43.128906 179.679688 Z M 43.152344 179.726562 "/>
</g>
</g>
</svg>
