<?xml version="1.0" encoding="UTF-8"?>
<svg xmlns="http://www.w3.org/2000/svg" xmlns:xlink="http://www.w3.org/1999/xlink" width="375pt" height="374.999991pt" viewBox="0 0 375 374.999991" version="1.2">
<defs>
<clipPath id="clip1">
  <path d="M 0 88.636719 L 375 88.636719 L 375 286.636719 L 0 286.636719 Z M 0 88.636719 "/>
</clipPath>
<clipPath id="clip2">
  <path d="M 375 187.777344 C 375 189.394531 374.925781 191.011719 374.773438 192.628906 C 374.625 194.246094 374.398438 195.855469 374.097656 197.46875 C 373.796875 199.078125 373.421875 200.683594 372.96875 202.285156 C 372.519531 203.882812 371.996094 205.476562 371.398438 207.066406 C 370.796875 208.652344 370.125 210.230469 369.378906 211.800781 C 368.636719 213.367188 367.816406 214.929688 366.925781 216.476562 C 366.035156 218.023438 365.074219 219.558594 364.039062 221.082031 C 363.003906 222.605469 361.902344 224.117188 360.726562 225.609375 C 359.554688 227.105469 358.308594 228.585938 356.996094 230.046875 C 355.6875 231.511719 354.308594 232.953125 352.859375 234.382812 C 351.414062 235.808594 349.902344 237.214844 348.324219 238.605469 C 346.746094 239.992188 345.105469 241.359375 343.402344 242.703125 C 341.695312 244.046875 339.929688 245.371094 338.101562 246.671875 C 336.273438 247.96875 334.386719 249.246094 332.4375 250.496094 C 330.492188 251.746094 328.488281 252.972656 326.429688 254.171875 C 324.367188 255.371094 322.253906 256.539062 320.082031 257.683594 C 317.914062 258.828125 315.691406 259.945312 313.417969 261.03125 C 311.144531 262.117188 308.820312 263.175781 306.449219 264.199219 C 304.078125 265.226562 301.660156 266.222656 299.195312 267.1875 C 296.730469 268.148438 294.222656 269.082031 291.667969 269.980469 C 289.117188 270.878906 286.527344 271.746094 283.894531 272.578125 C 281.261719 273.40625 278.59375 274.207031 275.886719 274.96875 C 273.179688 275.730469 270.441406 276.457031 267.667969 277.148438 C 264.890625 277.839844 262.089844 278.496094 259.253906 279.117188 C 256.417969 279.734375 253.554688 280.316406 250.667969 280.863281 C 247.777344 281.40625 244.863281 281.914062 241.929688 282.382812 C 238.992188 282.855469 236.035156 283.285156 233.058594 283.679688 C 230.082031 284.070312 227.089844 284.425781 224.078125 284.742188 C 221.070312 285.058594 218.046875 285.335938 215.011719 285.570312 C 211.976562 285.808594 208.933594 286.007812 205.878906 286.164062 C 202.824219 286.324219 199.765625 286.441406 196.699219 286.523438 C 193.636719 286.601562 190.570312 286.640625 187.5 286.640625 C 184.429688 286.640625 181.363281 286.601562 178.300781 286.523438 C 175.234375 286.441406 172.175781 286.324219 169.121094 286.164062 C 166.066406 286.007812 163.023438 285.808594 159.988281 285.570312 C 156.953125 285.335938 153.929688 285.058594 150.921875 284.742188 C 147.910156 284.425781 144.917969 284.070312 141.941406 283.679688 C 138.964844 283.285156 136.007812 282.855469 133.070312 282.382812 C 130.136719 281.914062 127.222656 281.40625 124.332031 280.863281 C 121.445312 280.316406 118.582031 279.734375 115.746094 279.117188 C 112.910156 278.496094 110.105469 277.839844 107.332031 277.148438 C 104.558594 276.457031 101.820312 275.730469 99.113281 274.96875 C 96.40625 274.207031 93.738281 273.40625 91.105469 272.578125 C 88.472656 271.746094 85.882812 270.878906 83.332031 269.980469 C 80.777344 269.082031 78.269531 268.148438 75.804688 267.1875 C 73.339844 266.222656 70.921875 265.226562 68.550781 264.199219 C 66.179688 263.175781 63.855469 262.117188 61.582031 261.03125 C 59.308594 259.945312 57.085938 258.828125 54.917969 257.683594 C 52.746094 256.539062 50.632812 255.371094 48.570312 254.171875 C 46.511719 252.972656 44.507812 251.746094 42.558594 250.496094 C 40.613281 249.246094 38.726562 247.96875 36.898438 246.671875 C 35.070312 245.371094 33.304688 244.046875 31.597656 242.703125 C 29.894531 241.359375 28.253906 239.992188 26.675781 238.605469 C 25.097656 237.214844 23.585938 235.808594 22.140625 234.382812 C 20.691406 232.953125 19.3125 231.511719 18.003906 230.046875 C 16.691406 228.585938 15.445312 227.105469 14.273438 225.609375 C 13.097656 224.117188 11.996094 222.605469 10.960938 221.082031 C 9.925781 219.558594 8.964844 218.023438 8.074219 216.476562 C 7.183594 214.929688 6.363281 213.367188 5.621094 211.800781 C 4.875 210.230469 4.203125 208.652344 3.601562 207.066406 C 3.003906 205.476562 2.480469 203.882812 2.03125 202.285156 C 1.578125 200.683594 1.203125 199.078125 0.902344 197.46875 C 0.601562 195.855469 0.375 194.246094 0.226562 192.628906 C 0.0742188 191.011719 0 189.394531 0 187.777344 C 0 186.160156 0.0742188 184.542969 0.226562 182.925781 C 0.375 181.308594 0.601562 179.695312 0.902344 178.085938 C 1.203125 176.476562 1.578125 174.871094 2.03125 173.269531 C 2.480469 171.671875 3.003906 170.078125 3.601562 168.488281 C 4.203125 166.902344 4.875 165.324219 5.621094 163.753906 C 6.363281 162.183594 7.183594 160.625 8.074219 159.078125 C 8.964844 157.53125 9.925781 155.992188 10.960938 154.46875 C 11.996094 152.945312 13.097656 151.4375 14.273438 149.941406 C 15.445312 148.449219 16.691406 146.96875 18.003906 145.507812 C 19.3125 144.042969 20.691406 142.601562 22.140625 141.171875 C 23.585938 139.746094 25.097656 138.339844 26.675781 136.949219 C 28.253906 135.5625 29.894531 134.195312 31.597656 132.851562 C 33.304688 131.503906 35.070312 130.183594 36.898438 128.882812 C 38.726562 127.585938 40.613281 126.308594 42.558594 125.058594 C 44.507812 123.808594 46.511719 122.582031 48.570312 121.382812 C 50.632812 120.183594 52.746094 119.011719 54.917969 117.871094 C 57.085938 116.726562 59.308594 115.609375 61.582031 114.523438 C 63.855469 113.4375 66.179688 112.378906 68.550781 111.355469 C 70.921875 110.328125 73.339844 109.332031 75.804688 108.367188 C 78.269531 107.40625 80.777344 106.472656 83.332031 105.574219 C 85.882812 104.675781 88.472656 103.808594 91.105469 102.976562 C 93.738281 102.144531 96.40625 101.347656 99.113281 100.585938 C 101.820312 99.824219 104.558594 99.097656 107.332031 98.40625 C 110.105469 97.710938 112.910156 97.058594 115.746094 96.4375 C 118.582031 95.820312 121.445312 95.238281 124.332031 94.691406 C 127.222656 94.148438 130.136719 93.640625 133.070312 93.167969 C 136.007812 92.699219 138.964844 92.269531 141.941406 91.875 C 144.917969 91.480469 147.910156 91.128906 150.921875 90.8125 C 153.929688 90.496094 156.953125 90.21875 159.988281 89.984375 C 163.023438 89.746094 166.066406 89.546875 169.121094 89.386719 C 172.175781 89.230469 175.234375 89.109375 178.300781 89.03125 C 181.363281 88.953125 184.429688 88.914062 187.5 88.914062 C 190.570312 88.914062 193.636719 88.953125 196.699219 89.03125 C 199.765625 89.109375 202.824219 89.230469 205.878906 89.386719 C 208.933594 89.546875 211.976562 89.746094 215.011719 89.984375 C 218.046875 90.21875 221.070312 90.496094 224.078125 90.8125 C 227.089844 91.128906 230.082031 91.480469 233.058594 91.875 C 236.035156 92.269531 238.992188 92.699219 241.929688 93.167969 C 244.863281 93.640625 247.777344 94.148438 250.667969 94.691406 C 253.554688 95.238281 256.417969 95.820312 259.253906 96.4375 C 262.089844 97.058594 264.894531 97.710938 267.667969 98.40625 C 270.441406 99.097656 273.179688 99.824219 275.886719 100.585938 C 278.59375 101.347656 281.261719 102.144531 283.894531 102.976562 C 286.527344 103.808594 289.117188 104.675781 291.667969 105.574219 C 294.222656 106.472656 296.730469 107.40625 299.195312 108.367188 C 301.660156 109.332031 304.078125 110.328125 306.449219 111.355469 C 308.820312 112.378906 311.144531 113.4375 313.417969 114.523438 C 315.691406 115.609375 317.914062 116.726562 320.082031 117.871094 C 322.253906 119.011719 324.367188 120.183594 326.429688 121.382812 C 328.488281 122.582031 330.492188 123.808594 332.4375 125.058594 C 334.386719 126.308594 336.273438 127.585938 338.101562 128.882812 C 339.929688 130.183594 341.695312 131.503906 343.402344 132.851562 C 345.105469 134.195312 346.746094 135.5625 348.324219 136.949219 C 349.902344 138.339844 351.414062 139.746094 352.859375 141.171875 C 354.308594 142.601562 355.6875 144.042969 356.996094 145.507812 C 358.308594 146.96875 359.554688 148.449219 360.726562 149.941406 C 361.902344 151.4375 363.003906 152.945312 364.039062 154.46875 C 365.074219 155.992188 366.035156 157.53125 366.925781 159.078125 C 367.816406 160.625 368.636719 162.183594 369.378906 163.753906 C 370.125 165.324219 370.796875 166.902344 371.398438 168.488281 C 371.996094 170.078125 372.519531 171.671875 372.96875 173.269531 C 373.421875 174.871094 373.796875 176.476562 374.097656 178.085938 C 374.398438 179.695312 374.625 181.308594 374.773438 182.925781 C 374.925781 184.542969 375 186.160156 375 187.777344 Z M 375 187.777344 "/>
</clipPath>
<radialGradient id="radial0" gradientUnits="userSpaceOnUse" cx="0.568209" cy="-85.448656" fx="0.568209" fy="-85.448656" r="246.586038" gradientTransform="matrix(0.998578,0,0,1.001422,112.007807,209.251245)">
<stop offset="0" style="stop-color:rgb(99.725342%,99.772644%,99.839783%);stop-opacity:1;"/>
<stop offset="0.00390625" style="stop-color:rgb(99.176025%,99.319458%,99.520874%);stop-opacity:1;"/>
<stop offset="0.0078125" style="stop-color:rgb(98.628235%,98.866272%,99.201965%);stop-opacity:1;"/>
<stop offset="0.0117188" style="stop-color:rgb(98.078918%,98.413086%,98.883057%);stop-opacity:1;"/>
<stop offset="0.015625" style="stop-color:rgb(97.531128%,97.9599%,98.564148%);stop-opacity:1;"/>
<stop offset="0.0195312" style="stop-color:rgb(96.981812%,97.506714%,98.245239%);stop-opacity:1;"/>
<stop offset="0.0234375" style="stop-color:rgb(96.434021%,97.053528%,97.926331%);stop-opacity:1;"/>
<stop offset="0.0273438" style="stop-color:rgb(95.88623%,96.600342%,97.607422%);stop-opacity:1;"/>
<stop offset="0.03125" style="stop-color:rgb(95.336914%,96.147156%,97.288513%);stop-opacity:1;"/>
<stop offset="0.0351562" style="stop-color:rgb(94.789124%,95.69397%,96.97113%);stop-opacity:1;"/>
<stop offset="0.0390625" style="stop-color:rgb(94.239807%,95.240784%,96.652222%);stop-opacity:1;"/>
<stop offset="0.0429688" style="stop-color:rgb(93.692017%,94.787598%,96.333313%);stop-opacity:1;"/>
<stop offset="0.046875" style="stop-color:rgb(93.1427%,94.334412%,96.014404%);stop-opacity:1;"/>
<stop offset="0.0507812" style="stop-color:rgb(92.59491%,93.881226%,95.695496%);stop-opacity:1;"/>
<stop offset="0.0546875" style="stop-color:rgb(92.047119%,93.42804%,95.376587%);stop-opacity:1;"/>
<stop offset="0.0585938" style="stop-color:rgb(91.497803%,92.974854%,95.057678%);stop-opacity:1;"/>
<stop offset="0.0625" style="stop-color:rgb(90.950012%,92.521667%,94.73877%);stop-opacity:1;"/>
<stop offset="0.0664062" style="stop-color:rgb(90.400696%,92.068481%,94.419861%);stop-opacity:1;"/>
<stop offset="0.0703125" style="stop-color:rgb(89.852905%,91.615295%,94.100952%);stop-opacity:1;"/>
<stop offset="0.0742188" style="stop-color:rgb(89.303589%,91.162109%,93.783569%);stop-opacity:1;"/>
<stop offset="0.078125" style="stop-color:rgb(88.755798%,90.708923%,93.464661%);stop-opacity:1;"/>
<stop offset="0.0820312" style="stop-color:rgb(88.208008%,90.255737%,93.145752%);stop-opacity:1;"/>
<stop offset="0.0859375" style="stop-color:rgb(87.658691%,89.802551%,92.826843%);stop-opacity:1;"/>
<stop offset="0.0898438" style="stop-color:rgb(87.110901%,89.349365%,92.507935%);stop-opacity:1;"/>
<stop offset="0.09375" style="stop-color:rgb(86.561584%,88.897705%,92.189026%);stop-opacity:1;"/>
<stop offset="0.0976562" style="stop-color:rgb(86.013794%,88.444519%,91.870117%);stop-opacity:1;"/>
<stop offset="0.101562" style="stop-color:rgb(85.464478%,87.991333%,91.551208%);stop-opacity:1;"/>
<stop offset="0.105469" style="stop-color:rgb(84.916687%,87.538147%,91.2323%);stop-opacity:1;"/>
<stop offset="0.109375" style="stop-color:rgb(84.368896%,87.084961%,90.914917%);stop-opacity:1;"/>
<stop offset="0.113281" style="stop-color:rgb(83.81958%,86.631775%,90.596008%);stop-opacity:1;"/>
<stop offset="0.117188" style="stop-color:rgb(83.27179%,86.178589%,90.2771%);stop-opacity:1;"/>
<stop offset="0.121094" style="stop-color:rgb(82.722473%,85.725403%,89.958191%);stop-opacity:1;"/>
<stop offset="0.125" style="stop-color:rgb(82.174683%,85.272217%,89.639282%);stop-opacity:1;"/>
<stop offset="0.128906" style="stop-color:rgb(81.626892%,84.819031%,89.320374%);stop-opacity:1;"/>
<stop offset="0.132812" style="stop-color:rgb(81.077576%,84.365845%,89.001465%);stop-opacity:1;"/>
<stop offset="0.136719" style="stop-color:rgb(80.529785%,83.912659%,88.682556%);stop-opacity:1;"/>
<stop offset="0.140625" style="stop-color:rgb(79.980469%,83.459473%,88.363647%);stop-opacity:1;"/>
<stop offset="0.144531" style="stop-color:rgb(79.432678%,83.006287%,88.044739%);stop-opacity:1;"/>
<stop offset="0.148438" style="stop-color:rgb(78.883362%,82.553101%,87.727356%);stop-opacity:1;"/>
<stop offset="0.152344" style="stop-color:rgb(78.335571%,82.099915%,87.408447%);stop-opacity:1;"/>
<stop offset="0.15625" style="stop-color:rgb(77.787781%,81.646729%,87.089539%);stop-opacity:1;"/>
<stop offset="0.160156" style="stop-color:rgb(77.238464%,81.193542%,86.77063%);stop-opacity:1;"/>
<stop offset="0.164062" style="stop-color:rgb(76.690674%,80.740356%,86.451721%);stop-opacity:1;"/>
<stop offset="0.167969" style="stop-color:rgb(76.141357%,80.28717%,86.132812%);stop-opacity:1;"/>
<stop offset="0.171875" style="stop-color:rgb(75.593567%,79.833984%,85.813904%);stop-opacity:1;"/>
<stop offset="0.175781" style="stop-color:rgb(75.04425%,79.380798%,85.494995%);stop-opacity:1;"/>
<stop offset="0.179688" style="stop-color:rgb(74.49646%,78.927612%,85.176086%);stop-opacity:1;"/>
<stop offset="0.183594" style="stop-color:rgb(73.948669%,78.474426%,84.857178%);stop-opacity:1;"/>
<stop offset="0.1875" style="stop-color:rgb(73.399353%,78.02124%,84.539795%);stop-opacity:1;"/>
<stop offset="0.191406" style="stop-color:rgb(72.851562%,77.56958%,84.220886%);stop-opacity:1;"/>
<stop offset="0.195312" style="stop-color:rgb(72.302246%,77.116394%,83.901978%);stop-opacity:1;"/>
<stop offset="0.199219" style="stop-color:rgb(71.754456%,76.663208%,83.583069%);stop-opacity:1;"/>
<stop offset="0.203125" style="stop-color:rgb(71.205139%,76.210022%,83.26416%);stop-opacity:1;"/>
<stop offset="0.207031" style="stop-color:rgb(70.657349%,75.756836%,82.945251%);stop-opacity:1;"/>
<stop offset="0.210938" style="stop-color:rgb(70.109558%,75.30365%,82.626343%);stop-opacity:1;"/>
<stop offset="0.214844" style="stop-color:rgb(69.560242%,74.850464%,82.307434%);stop-opacity:1;"/>
<stop offset="0.21875" style="stop-color:rgb(69.012451%,74.397278%,81.988525%);stop-opacity:1;"/>
<stop offset="0.222656" style="stop-color:rgb(68.463135%,73.944092%,81.671143%);stop-opacity:1;"/>
<stop offset="0.226562" style="stop-color:rgb(67.915344%,73.490906%,81.352234%);stop-opacity:1;"/>
<stop offset="0.230469" style="stop-color:rgb(67.366028%,73.03772%,81.033325%);stop-opacity:1;"/>
<stop offset="0.234375" style="stop-color:rgb(66.818237%,72.584534%,80.714417%);stop-opacity:1;"/>
<stop offset="0.238281" style="stop-color:rgb(66.270447%,72.131348%,80.395508%);stop-opacity:1;"/>
<stop offset="0.242188" style="stop-color:rgb(65.72113%,71.678162%,80.076599%);stop-opacity:1;"/>
<stop offset="0.246094" style="stop-color:rgb(65.17334%,71.224976%,79.75769%);stop-opacity:1;"/>
<stop offset="0.25" style="stop-color:rgb(64.624023%,70.77179%,79.438782%);stop-opacity:1;"/>
<stop offset="0.253906" style="stop-color:rgb(64.076233%,70.318604%,79.119873%);stop-opacity:1;"/>
<stop offset="0.257812" style="stop-color:rgb(63.528442%,69.865417%,78.800964%);stop-opacity:1;"/>
<stop offset="0.261719" style="stop-color:rgb(62.979126%,69.412231%,78.483582%);stop-opacity:1;"/>
<stop offset="0.265625" style="stop-color:rgb(62.431335%,68.959045%,78.164673%);stop-opacity:1;"/>
<stop offset="0.269531" style="stop-color:rgb(61.882019%,68.505859%,77.845764%);stop-opacity:1;"/>
<stop offset="0.273438" style="stop-color:rgb(61.334229%,68.052673%,77.526855%);stop-opacity:1;"/>
<stop offset="0.277344" style="stop-color:rgb(60.784912%,67.599487%,77.207947%);stop-opacity:1;"/>
<stop offset="0.28125" style="stop-color:rgb(60.237122%,67.146301%,76.889038%);stop-opacity:1;"/>
<stop offset="0.285156" style="stop-color:rgb(59.689331%,66.693115%,76.570129%);stop-opacity:1;"/>
<stop offset="0.289062" style="stop-color:rgb(59.140015%,66.241455%,76.251221%);stop-opacity:1;"/>
<stop offset="0.292969" style="stop-color:rgb(58.592224%,65.788269%,75.932312%);stop-opacity:1;"/>
<stop offset="0.296875" style="stop-color:rgb(58.042908%,65.335083%,75.614929%);stop-opacity:1;"/>
<stop offset="0.300781" style="stop-color:rgb(57.495117%,64.881897%,75.296021%);stop-opacity:1;"/>
<stop offset="0.304688" style="stop-color:rgb(56.945801%,64.428711%,74.977112%);stop-opacity:1;"/>
<stop offset="0.308594" style="stop-color:rgb(56.39801%,63.975525%,74.658203%);stop-opacity:1;"/>
<stop offset="0.3125" style="stop-color:rgb(55.85022%,63.522339%,74.339294%);stop-opacity:1;"/>
<stop offset="0.316406" style="stop-color:rgb(55.300903%,63.069153%,74.020386%);stop-opacity:1;"/>
<stop offset="0.320312" style="stop-color:rgb(54.753113%,62.615967%,73.701477%);stop-opacity:1;"/>
<stop offset="0.324219" style="stop-color:rgb(54.203796%,62.162781%,73.382568%);stop-opacity:1;"/>
<stop offset="0.328125" style="stop-color:rgb(53.656006%,61.709595%,73.06366%);stop-opacity:1;"/>
<stop offset="0.332031" style="stop-color:rgb(53.106689%,61.256409%,72.744751%);stop-opacity:1;"/>
<stop offset="0.335938" style="stop-color:rgb(52.558899%,60.803223%,72.427368%);stop-opacity:1;"/>
<stop offset="0.339844" style="stop-color:rgb(52.011108%,60.350037%,72.108459%);stop-opacity:1;"/>
<stop offset="0.34375" style="stop-color:rgb(51.461792%,59.896851%,71.789551%);stop-opacity:1;"/>
<stop offset="0.347656" style="stop-color:rgb(50.914001%,59.443665%,71.470642%);stop-opacity:1;"/>
<stop offset="0.351562" style="stop-color:rgb(50.364685%,58.990479%,71.151733%);stop-opacity:1;"/>
<stop offset="0.355469" style="stop-color:rgb(49.816895%,58.537292%,70.832825%);stop-opacity:1;"/>
<stop offset="0.359375" style="stop-color:rgb(49.267578%,58.084106%,70.513916%);stop-opacity:1;"/>
<stop offset="0.363281" style="stop-color:rgb(48.719788%,57.63092%,70.195007%);stop-opacity:1;"/>
<stop offset="0.367188" style="stop-color:rgb(48.171997%,57.177734%,69.876099%);stop-opacity:1;"/>
<stop offset="0.371094" style="stop-color:rgb(47.622681%,56.724548%,69.55719%);stop-opacity:1;"/>
<stop offset="0.375" style="stop-color:rgb(47.07489%,56.271362%,69.239807%);stop-opacity:1;"/>
<stop offset="0.378906" style="stop-color:rgb(46.525574%,55.818176%,68.920898%);stop-opacity:1;"/>
<stop offset="0.382812" style="stop-color:rgb(45.977783%,55.36499%,68.60199%);stop-opacity:1;"/>
<stop offset="0.386719" style="stop-color:rgb(45.429993%,54.91333%,68.283081%);stop-opacity:1;"/>
<stop offset="0.390625" style="stop-color:rgb(44.880676%,54.460144%,67.964172%);stop-opacity:1;"/>
<stop offset="0.394531" style="stop-color:rgb(44.332886%,54.006958%,67.645264%);stop-opacity:1;"/>
<stop offset="0.398438" style="stop-color:rgb(43.783569%,53.553772%,67.326355%);stop-opacity:1;"/>
<stop offset="0.402344" style="stop-color:rgb(43.235779%,53.100586%,67.007446%);stop-opacity:1;"/>
<stop offset="0.40625" style="stop-color:rgb(42.686462%,52.6474%,66.688538%);stop-opacity:1;"/>
<stop offset="0.410156" style="stop-color:rgb(42.138672%,52.194214%,66.371155%);stop-opacity:1;"/>
<stop offset="0.414062" style="stop-color:rgb(41.590881%,51.741028%,66.052246%);stop-opacity:1;"/>
<stop offset="0.417969" style="stop-color:rgb(41.041565%,51.287842%,65.733337%);stop-opacity:1;"/>
<stop offset="0.421875" style="stop-color:rgb(40.493774%,50.834656%,65.414429%);stop-opacity:1;"/>
<stop offset="0.425781" style="stop-color:rgb(39.944458%,50.38147%,65.09552%);stop-opacity:1;"/>
<stop offset="0.429688" style="stop-color:rgb(39.396667%,49.928284%,64.776611%);stop-opacity:1;"/>
<stop offset="0.433594" style="stop-color:rgb(38.847351%,49.475098%,64.457703%);stop-opacity:1;"/>
<stop offset="0.4375" style="stop-color:rgb(38.299561%,49.021912%,64.138794%);stop-opacity:1;"/>
<stop offset="0.441406" style="stop-color:rgb(37.75177%,48.568726%,63.819885%);stop-opacity:1;"/>
<stop offset="0.445312" style="stop-color:rgb(37.202454%,48.11554%,63.500977%);stop-opacity:1;"/>
<stop offset="0.449219" style="stop-color:rgb(36.654663%,47.662354%,63.183594%);stop-opacity:1;"/>
<stop offset="0.453125" style="stop-color:rgb(36.105347%,47.209167%,62.864685%);stop-opacity:1;"/>
<stop offset="0.457031" style="stop-color:rgb(35.557556%,46.755981%,62.545776%);stop-opacity:1;"/>
<stop offset="0.460938" style="stop-color:rgb(35.00824%,46.302795%,62.226868%);stop-opacity:1;"/>
<stop offset="0.464844" style="stop-color:rgb(34.460449%,45.849609%,61.907959%);stop-opacity:1;"/>
<stop offset="0.46875" style="stop-color:rgb(33.912659%,45.396423%,61.58905%);stop-opacity:1;"/>
<stop offset="0.472656" style="stop-color:rgb(33.363342%,44.943237%,61.270142%);stop-opacity:1;"/>
<stop offset="0.476562" style="stop-color:rgb(32.815552%,44.490051%,60.951233%);stop-opacity:1;"/>
<stop offset="0.480469" style="stop-color:rgb(32.266235%,44.036865%,60.632324%);stop-opacity:1;"/>
<stop offset="0.484375" style="stop-color:rgb(31.718445%,43.585205%,60.314941%);stop-opacity:1;"/>
<stop offset="0.488281" style="stop-color:rgb(31.170654%,43.132019%,59.996033%);stop-opacity:1;"/>
<stop offset="0.492188" style="stop-color:rgb(30.621338%,42.678833%,59.677124%);stop-opacity:1;"/>
<stop offset="0.496094" style="stop-color:rgb(30.073547%,42.225647%,59.358215%);stop-opacity:1;"/>
<stop offset="0.5" style="stop-color:rgb(29.736328%,41.882324%,59.016418%);stop-opacity:1;"/>
<stop offset="0.503906" style="stop-color:rgb(29.60968%,41.648865%,58.651733%);stop-opacity:1;"/>
<stop offset="0.507812" style="stop-color:rgb(29.484558%,41.416931%,58.287048%);stop-opacity:1;"/>
<stop offset="0.511719" style="stop-color:rgb(29.359436%,41.183472%,57.922363%);stop-opacity:1;"/>
<stop offset="0.515625" style="stop-color:rgb(29.232788%,40.951538%,57.556152%);stop-opacity:1;"/>
<stop offset="0.519531" style="stop-color:rgb(29.107666%,40.718079%,57.191467%);stop-opacity:1;"/>
<stop offset="0.523438" style="stop-color:rgb(28.981018%,40.486145%,56.826782%);stop-opacity:1;"/>
<stop offset="0.527344" style="stop-color:rgb(28.855896%,40.252686%,56.462097%);stop-opacity:1;"/>
<stop offset="0.53125" style="stop-color:rgb(28.729248%,40.019226%,56.097412%);stop-opacity:1;"/>
<stop offset="0.535156" style="stop-color:rgb(28.604126%,39.787292%,55.732727%);stop-opacity:1;"/>
<stop offset="0.539062" style="stop-color:rgb(28.477478%,39.553833%,55.368042%);stop-opacity:1;"/>
<stop offset="0.542969" style="stop-color:rgb(28.352356%,39.321899%,55.003357%);stop-opacity:1;"/>
<stop offset="0.546875" style="stop-color:rgb(28.227234%,39.08844%,54.638672%);stop-opacity:1;"/>
<stop offset="0.550781" style="stop-color:rgb(28.100586%,38.856506%,54.272461%);stop-opacity:1;"/>
<stop offset="0.554688" style="stop-color:rgb(27.975464%,38.623047%,53.907776%);stop-opacity:1;"/>
<stop offset="0.558594" style="stop-color:rgb(27.848816%,38.389587%,53.543091%);stop-opacity:1;"/>
<stop offset="0.5625" style="stop-color:rgb(27.723694%,38.157654%,53.178406%);stop-opacity:1;"/>
<stop offset="0.566406" style="stop-color:rgb(27.597046%,37.924194%,52.813721%);stop-opacity:1;"/>
<stop offset="0.570312" style="stop-color:rgb(27.471924%,37.692261%,52.449036%);stop-opacity:1;"/>
<stop offset="0.574219" style="stop-color:rgb(27.346802%,37.458801%,52.084351%);stop-opacity:1;"/>
<stop offset="0.578125" style="stop-color:rgb(27.220154%,37.226868%,51.719666%);stop-opacity:1;"/>
<stop offset="0.582031" style="stop-color:rgb(27.095032%,36.993408%,51.35498%);stop-opacity:1;"/>
<stop offset="0.585938" style="stop-color:rgb(26.968384%,36.759949%,50.990295%);stop-opacity:1;"/>
<stop offset="0.589844" style="stop-color:rgb(26.843262%,36.528015%,50.624084%);stop-opacity:1;"/>
<stop offset="0.59375" style="stop-color:rgb(26.716614%,36.294556%,50.259399%);stop-opacity:1;"/>
<stop offset="0.597656" style="stop-color:rgb(26.591492%,36.062622%,49.894714%);stop-opacity:1;"/>
<stop offset="0.601562" style="stop-color:rgb(26.46637%,35.829163%,49.530029%);stop-opacity:1;"/>
<stop offset="0.605469" style="stop-color:rgb(26.339722%,35.595703%,49.165344%);stop-opacity:1;"/>
<stop offset="0.609375" style="stop-color:rgb(26.2146%,35.36377%,48.800659%);stop-opacity:1;"/>
<stop offset="0.613281" style="stop-color:rgb(26.087952%,35.13031%,48.435974%);stop-opacity:1;"/>
<stop offset="0.617188" style="stop-color:rgb(25.96283%,34.898376%,48.071289%);stop-opacity:1;"/>
<stop offset="0.621094" style="stop-color:rgb(25.836182%,34.664917%,47.706604%);stop-opacity:1;"/>
<stop offset="0.625" style="stop-color:rgb(25.71106%,34.432983%,47.340393%);stop-opacity:1;"/>
<stop offset="0.628906" style="stop-color:rgb(25.585938%,34.199524%,46.975708%);stop-opacity:1;"/>
<stop offset="0.632812" style="stop-color:rgb(25.45929%,33.966064%,46.611023%);stop-opacity:1;"/>
<stop offset="0.636719" style="stop-color:rgb(25.334167%,33.734131%,46.246338%);stop-opacity:1;"/>
<stop offset="0.640625" style="stop-color:rgb(25.20752%,33.500671%,45.881653%);stop-opacity:1;"/>
<stop offset="0.644531" style="stop-color:rgb(25.082397%,33.268738%,45.516968%);stop-opacity:1;"/>
<stop offset="0.648438" style="stop-color:rgb(24.95575%,33.035278%,45.152283%);stop-opacity:1;"/>
<stop offset="0.652344" style="stop-color:rgb(24.830627%,32.803345%,44.787598%);stop-opacity:1;"/>
<stop offset="0.65625" style="stop-color:rgb(24.705505%,32.569885%,44.422913%);stop-opacity:1;"/>
<stop offset="0.660156" style="stop-color:rgb(24.578857%,32.336426%,44.058228%);stop-opacity:1;"/>
<stop offset="0.664062" style="stop-color:rgb(24.453735%,32.104492%,43.692017%);stop-opacity:1;"/>
<stop offset="0.667969" style="stop-color:rgb(24.327087%,31.871033%,43.327332%);stop-opacity:1;"/>
<stop offset="0.671875" style="stop-color:rgb(24.201965%,31.639099%,42.962646%);stop-opacity:1;"/>
<stop offset="0.675781" style="stop-color:rgb(24.075317%,31.40564%,42.597961%);stop-opacity:1;"/>
<stop offset="0.679688" style="stop-color:rgb(23.950195%,31.173706%,42.233276%);stop-opacity:1;"/>
<stop offset="0.683594" style="stop-color:rgb(23.823547%,30.940247%,41.868591%);stop-opacity:1;"/>
<stop offset="0.6875" style="stop-color:rgb(23.698425%,30.706787%,41.503906%);stop-opacity:1;"/>
<stop offset="0.691406" style="stop-color:rgb(23.573303%,30.474854%,41.139221%);stop-opacity:1;"/>
<stop offset="0.695312" style="stop-color:rgb(23.446655%,30.241394%,40.774536%);stop-opacity:1;"/>
<stop offset="0.699219" style="stop-color:rgb(23.321533%,30.00946%,40.409851%);stop-opacity:1;"/>
<stop offset="0.703125" style="stop-color:rgb(23.194885%,29.776001%,40.04364%);stop-opacity:1;"/>
<stop offset="0.707031" style="stop-color:rgb(23.069763%,29.544067%,39.678955%);stop-opacity:1;"/>
<stop offset="0.710938" style="stop-color:rgb(22.943115%,29.310608%,39.31427%);stop-opacity:1;"/>
<stop offset="0.714844" style="stop-color:rgb(22.817993%,29.077148%,38.949585%);stop-opacity:1;"/>
<stop offset="0.71875" style="stop-color:rgb(22.692871%,28.845215%,38.5849%);stop-opacity:1;"/>
<stop offset="0.722656" style="stop-color:rgb(22.566223%,28.611755%,38.220215%);stop-opacity:1;"/>
<stop offset="0.726562" style="stop-color:rgb(22.441101%,28.379822%,37.85553%);stop-opacity:1;"/>
<stop offset="0.730469" style="stop-color:rgb(22.314453%,28.146362%,37.490845%);stop-opacity:1;"/>
<stop offset="0.734375" style="stop-color:rgb(22.189331%,27.912903%,37.12616%);stop-opacity:1;"/>
<stop offset="0.738281" style="stop-color:rgb(22.062683%,27.680969%,36.759949%);stop-opacity:1;"/>
<stop offset="0.742188" style="stop-color:rgb(21.937561%,27.44751%,36.395264%);stop-opacity:1;"/>
<stop offset="0.746094" style="stop-color:rgb(21.812439%,27.215576%,36.030579%);stop-opacity:1;"/>
<stop offset="0.75" style="stop-color:rgb(21.685791%,26.982117%,35.665894%);stop-opacity:1;"/>
<stop offset="0.753906" style="stop-color:rgb(21.560669%,26.750183%,35.301208%);stop-opacity:1;"/>
<stop offset="0.757812" style="stop-color:rgb(21.434021%,26.516724%,34.936523%);stop-opacity:1;"/>
<stop offset="0.761719" style="stop-color:rgb(21.308899%,26.283264%,34.571838%);stop-opacity:1;"/>
<stop offset="0.765625" style="stop-color:rgb(21.182251%,26.051331%,34.207153%);stop-opacity:1;"/>
<stop offset="0.769531" style="stop-color:rgb(21.057129%,25.817871%,33.842468%);stop-opacity:1;"/>
<stop offset="0.773438" style="stop-color:rgb(20.932007%,25.585938%,33.477783%);stop-opacity:1;"/>
<stop offset="0.777344" style="stop-color:rgb(20.805359%,25.352478%,33.111572%);stop-opacity:1;"/>
<stop offset="0.78125" style="stop-color:rgb(20.680237%,25.120544%,32.746887%);stop-opacity:1;"/>
<stop offset="0.785156" style="stop-color:rgb(20.553589%,24.887085%,32.382202%);stop-opacity:1;"/>
<stop offset="0.789062" style="stop-color:rgb(20.428467%,24.653625%,32.017517%);stop-opacity:1;"/>
<stop offset="0.792969" style="stop-color:rgb(20.301819%,24.421692%,31.652832%);stop-opacity:1;"/>
<stop offset="0.796875" style="stop-color:rgb(20.176697%,24.188232%,31.288147%);stop-opacity:1;"/>
<stop offset="0.800781" style="stop-color:rgb(20.051575%,23.956299%,30.923462%);stop-opacity:1;"/>
<stop offset="0.804688" style="stop-color:rgb(19.924927%,23.722839%,30.558777%);stop-opacity:1;"/>
<stop offset="0.808594" style="stop-color:rgb(19.799805%,23.490906%,30.194092%);stop-opacity:1;"/>
<stop offset="0.8125" style="stop-color:rgb(19.673157%,23.257446%,29.827881%);stop-opacity:1;"/>
<stop offset="0.816406" style="stop-color:rgb(19.548035%,23.023987%,29.463196%);stop-opacity:1;"/>
<stop offset="0.820312" style="stop-color:rgb(19.421387%,22.792053%,29.098511%);stop-opacity:1;"/>
<stop offset="0.824219" style="stop-color:rgb(19.296265%,22.558594%,28.733826%);stop-opacity:1;"/>
<stop offset="0.828125" style="stop-color:rgb(19.171143%,22.32666%,28.369141%);stop-opacity:1;"/>
<stop offset="0.832031" style="stop-color:rgb(19.044495%,22.093201%,28.004456%);stop-opacity:1;"/>
<stop offset="0.835938" style="stop-color:rgb(18.919373%,21.861267%,27.639771%);stop-opacity:1;"/>
<stop offset="0.839844" style="stop-color:rgb(18.792725%,21.627808%,27.275085%);stop-opacity:1;"/>
<stop offset="0.84375" style="stop-color:rgb(18.667603%,21.394348%,26.9104%);stop-opacity:1;"/>
<stop offset="0.847656" style="stop-color:rgb(18.540955%,21.162415%,26.545715%);stop-opacity:1;"/>
<stop offset="0.851562" style="stop-color:rgb(18.415833%,20.928955%,26.179504%);stop-opacity:1;"/>
<stop offset="0.855469" style="stop-color:rgb(18.289185%,20.697021%,25.814819%);stop-opacity:1;"/>
<stop offset="0.859375" style="stop-color:rgb(18.164062%,20.463562%,25.450134%);stop-opacity:1;"/>
<stop offset="0.863281" style="stop-color:rgb(18.03894%,20.230103%,25.085449%);stop-opacity:1;"/>
<stop offset="0.867188" style="stop-color:rgb(17.912292%,19.998169%,24.720764%);stop-opacity:1;"/>
<stop offset="0.871094" style="stop-color:rgb(17.78717%,19.764709%,24.356079%);stop-opacity:1;"/>
<stop offset="0.875" style="stop-color:rgb(17.660522%,19.532776%,23.991394%);stop-opacity:1;"/>
<stop offset="0.878906" style="stop-color:rgb(17.5354%,19.299316%,23.626709%);stop-opacity:1;"/>
<stop offset="0.882812" style="stop-color:rgb(17.408752%,19.067383%,23.262024%);stop-opacity:1;"/>
<stop offset="0.886719" style="stop-color:rgb(17.28363%,18.833923%,22.897339%);stop-opacity:1;"/>
<stop offset="0.890625" style="stop-color:rgb(17.158508%,18.600464%,22.531128%);stop-opacity:1;"/>
<stop offset="0.894531" style="stop-color:rgb(17.03186%,18.36853%,22.166443%);stop-opacity:1;"/>
<stop offset="0.898438" style="stop-color:rgb(16.906738%,18.135071%,21.801758%);stop-opacity:1;"/>
<stop offset="0.902344" style="stop-color:rgb(16.78009%,17.903137%,21.437073%);stop-opacity:1;"/>
<stop offset="0.90625" style="stop-color:rgb(16.654968%,17.669678%,21.072388%);stop-opacity:1;"/>
<stop offset="0.910156" style="stop-color:rgb(16.52832%,17.437744%,20.707703%);stop-opacity:1;"/>
<stop offset="0.914062" style="stop-color:rgb(16.403198%,17.204285%,20.343018%);stop-opacity:1;"/>
<stop offset="0.917969" style="stop-color:rgb(16.278076%,16.970825%,19.978333%);stop-opacity:1;"/>
<stop offset="0.921875" style="stop-color:rgb(16.151428%,16.738892%,19.613647%);stop-opacity:1;"/>
<stop offset="0.925781" style="stop-color:rgb(16.026306%,16.505432%,19.247437%);stop-opacity:1;"/>
<stop offset="0.929688" style="stop-color:rgb(15.899658%,16.273499%,18.882751%);stop-opacity:1;"/>
<stop offset="0.933594" style="stop-color:rgb(15.774536%,16.040039%,18.518066%);stop-opacity:1;"/>
<stop offset="0.9375" style="stop-color:rgb(15.647888%,15.808105%,18.153381%);stop-opacity:1;"/>
<stop offset="0.941406" style="stop-color:rgb(15.522766%,15.574646%,17.788696%);stop-opacity:1;"/>
<stop offset="0.945312" style="stop-color:rgb(15.397644%,15.341187%,17.424011%);stop-opacity:1;"/>
<stop offset="0.949219" style="stop-color:rgb(15.270996%,15.109253%,17.059326%);stop-opacity:1;"/>
<stop offset="0.953125" style="stop-color:rgb(15.145874%,14.875793%,16.694641%);stop-opacity:1;"/>
<stop offset="0.957031" style="stop-color:rgb(15.019226%,14.64386%,16.329956%);stop-opacity:1;"/>
<stop offset="0.960938" style="stop-color:rgb(14.894104%,14.4104%,15.965271%);stop-opacity:1;"/>
<stop offset="0.964844" style="stop-color:rgb(14.767456%,14.178467%,15.59906%);stop-opacity:1;"/>
<stop offset="0.96875" style="stop-color:rgb(14.642334%,13.945007%,15.234375%);stop-opacity:1;"/>
<stop offset="0.972656" style="stop-color:rgb(14.517212%,13.711548%,14.86969%);stop-opacity:1;"/>
<stop offset="0.976562" style="stop-color:rgb(14.390564%,13.479614%,14.505005%);stop-opacity:1;"/>
<stop offset="0.980469" style="stop-color:rgb(14.265442%,13.246155%,14.14032%);stop-opacity:1;"/>
<stop offset="0.984375" style="stop-color:rgb(14.138794%,13.014221%,13.775635%);stop-opacity:1;"/>
<stop offset="0.988281" style="stop-color:rgb(14.013672%,12.780762%,13.41095%);stop-opacity:1;"/>
<stop offset="0.992188" style="stop-color:rgb(13.887024%,12.547302%,13.046265%);stop-opacity:1;"/>
<stop offset="0.996094" style="stop-color:rgb(13.761902%,12.315369%,12.68158%);stop-opacity:1;"/>
<stop offset="1" style="stop-color:rgb(13.699341%,12.199402%,12.5%);stop-opacity:1;"/>
</radialGradient>
</defs>
<g id="surface1">
<g clip-path="url(#clip1)" clip-rule="nonzero">
<g clip-path="url(#clip2)" clip-rule="nonzero">
<path style=" stroke:none;fill-rule:nonzero;fill:url(#radial0);" d="M 0 88.914062 L 0 286.636719 L 375 286.636719 L 375 88.914062 Z M 0 88.914062 "/>
</g>
</g>
<path style=" stroke:none;fill-rule:nonzero;fill:rgb(38.038635%,50.588989%,71.369934%);fill-opacity:1;" d="M 367.675781 187.777344 C 367.675781 189.273438 367.601562 190.773438 367.457031 192.269531 C 367.3125 193.765625 367.097656 195.257812 366.808594 196.746094 C 366.519531 198.238281 366.160156 199.722656 365.726562 201.207031 C 365.292969 202.6875 364.789062 204.164062 364.214844 205.632812 C 363.636719 207.101562 362.992188 208.5625 362.277344 210.015625 C 361.558594 211.46875 360.773438 212.910156 359.917969 214.34375 C 359.0625 215.777344 358.136719 217.199219 357.144531 218.609375 C 356.148438 220.019531 355.089844 221.417969 353.960938 222.800781 C 352.832031 224.183594 351.636719 225.554688 350.375 226.90625 C 349.117188 228.261719 347.789062 229.597656 346.402344 230.917969 C 345.011719 232.238281 343.558594 233.542969 342.042969 234.828125 C 340.527344 236.113281 338.949219 237.378906 337.3125 238.621094 C 335.671875 239.867188 333.976562 241.09375 332.21875 242.296875 C 330.460938 243.5 328.648438 244.679688 326.777344 245.835938 C 324.90625 246.996094 322.980469 248.128906 321 249.238281 C 319.019531 250.347656 316.988281 251.433594 314.902344 252.492188 C 312.820312 253.550781 310.683594 254.582031 308.5 255.589844 C 306.3125 256.59375 304.082031 257.574219 301.800781 258.523438 C 299.523438 259.472656 297.199219 260.394531 294.832031 261.285156 C 292.460938 262.179688 290.050781 263.039062 287.601562 263.871094 C 285.148438 264.703125 282.65625 265.507812 280.128906 266.277344 C 277.601562 267.046875 275.035156 267.785156 272.433594 268.492188 C 269.832031 269.195312 267.199219 269.871094 264.535156 270.511719 C 261.871094 271.148438 259.175781 271.757812 256.449219 272.332031 C 253.726562 272.902344 250.976562 273.441406 248.199219 273.945312 C 245.421875 274.453125 242.625 274.921875 239.800781 275.355469 C 236.980469 275.789062 234.140625 276.191406 231.277344 276.554688 C 228.417969 276.917969 225.542969 277.246094 222.652344 277.539062 C 219.757812 277.832031 216.855469 278.085938 213.9375 278.304688 C 211.019531 278.527344 208.09375 278.710938 205.160156 278.855469 C 202.226562 279.003906 199.285156 279.113281 196.339844 279.1875 C 193.394531 279.261719 190.449219 279.296875 187.5 279.296875 C 184.550781 279.296875 181.605469 279.261719 178.660156 279.1875 C 175.714844 279.113281 172.773438 279.003906 169.839844 278.855469 C 166.90625 278.710938 163.980469 278.527344 161.0625 278.304688 C 158.144531 278.085938 155.242188 277.832031 152.347656 277.539062 C 149.457031 277.246094 146.582031 276.917969 143.722656 276.554688 C 140.859375 276.191406 138.019531 275.789062 135.199219 275.355469 C 132.375 274.921875 129.578125 274.453125 126.800781 273.945312 C 124.023438 273.441406 121.273438 272.902344 118.550781 272.332031 C 115.824219 271.757812 113.128906 271.148438 110.464844 270.511719 C 107.800781 269.871094 105.167969 269.195312 102.566406 268.492188 C 99.964844 267.785156 97.398438 267.046875 94.871094 266.277344 C 92.34375 265.507812 89.851562 264.703125 87.398438 263.871094 C 84.949219 263.039062 82.539062 262.179688 80.167969 261.285156 C 77.800781 260.394531 75.476562 259.472656 73.199219 258.523438 C 70.917969 257.574219 68.6875 256.59375 66.5 255.589844 C 64.316406 254.582031 62.179688 253.550781 60.097656 252.492188 C 58.011719 251.433594 55.980469 250.347656 54 249.238281 C 52.019531 248.128906 50.09375 246.996094 48.222656 245.835938 C 46.351562 244.679688 44.539062 243.5 42.78125 242.296875 C 41.023438 241.09375 39.328125 239.867188 37.6875 238.621094 C 36.050781 237.378906 34.472656 236.113281 32.957031 234.828125 C 31.441406 233.542969 29.988281 232.238281 28.597656 230.917969 C 27.210938 229.597656 25.882812 228.261719 24.621094 226.90625 C 23.363281 225.554688 22.167969 224.183594 21.039062 222.800781 C 19.910156 221.417969 18.851562 220.019531 17.855469 218.609375 C 16.863281 217.199219 15.9375 215.777344 15.082031 214.34375 C 14.226562 212.910156 13.441406 211.46875 12.722656 210.015625 C 12.007812 208.5625 11.363281 207.101562 10.785156 205.632812 C 10.210938 204.164062 9.707031 202.6875 9.273438 201.207031 C 8.839844 199.722656 8.480469 198.238281 8.191406 196.746094 C 7.902344 195.257812 7.6875 193.765625 7.542969 192.269531 C 7.398438 190.773438 7.324219 189.273438 7.324219 187.777344 C 7.324219 186.28125 7.398438 184.78125 7.542969 183.285156 C 7.6875 181.789062 7.902344 180.296875 8.191406 178.808594 C 8.480469 177.316406 8.839844 175.828125 9.273438 174.347656 C 9.707031 172.867188 10.210938 171.390625 10.785156 169.921875 C 11.363281 168.453125 12.007812 166.992188 12.722656 165.539062 C 13.441406 164.085938 14.226562 162.644531 15.082031 161.210938 C 15.9375 159.777344 16.863281 158.355469 17.855469 156.945312 C 18.851562 155.535156 19.910156 154.136719 21.039062 152.753906 C 22.167969 151.371094 23.363281 150 24.621094 148.648438 C 25.882812 147.292969 27.210938 145.957031 28.597656 144.636719 C 29.988281 143.3125 31.441406 142.011719 32.957031 140.726562 C 34.472656 139.441406 36.050781 138.175781 37.6875 136.929688 C 39.328125 135.6875 41.023438 134.460938 42.78125 133.257812 C 44.539062 132.054688 46.351562 130.875 48.222656 129.71875 C 50.09375 128.558594 52.019531 127.425781 54 126.316406 C 55.980469 125.207031 58.011719 124.121094 60.097656 123.0625 C 62.179688 122.003906 64.316406 120.972656 66.5 119.964844 C 68.6875 118.960938 70.917969 117.980469 73.199219 117.03125 C 75.476562 116.082031 77.800781 115.160156 80.167969 114.269531 C 82.539062 113.375 84.949219 112.511719 87.398438 111.679688 C 89.851562 110.847656 92.34375 110.046875 94.871094 109.277344 C 97.398438 108.507812 99.964844 107.769531 102.566406 107.0625 C 105.167969 106.359375 107.800781 105.683594 110.464844 105.042969 C 113.128906 104.402344 115.824219 103.796875 118.550781 103.222656 C 121.273438 102.652344 124.023438 102.113281 126.800781 101.609375 C 129.578125 101.101562 132.375 100.632812 135.199219 100.199219 C 138.019531 99.761719 140.859375 99.363281 143.722656 99 C 146.582031 98.636719 149.457031 98.308594 152.347656 98.015625 C 155.242188 97.722656 158.144531 97.46875 161.0625 97.25 C 163.980469 97.027344 166.90625 96.84375 169.839844 96.699219 C 172.773438 96.550781 175.714844 96.441406 178.660156 96.367188 C 181.605469 96.292969 184.550781 96.257812 187.5 96.257812 C 190.449219 96.257812 193.394531 96.292969 196.339844 96.367188 C 199.285156 96.441406 202.226562 96.550781 205.160156 96.699219 C 208.09375 96.84375 211.019531 97.027344 213.9375 97.25 C 216.855469 97.46875 219.757812 97.722656 222.652344 98.015625 C 225.542969 98.308594 228.417969 98.636719 231.277344 99 C 234.140625 99.363281 236.980469 99.761719 239.800781 100.199219 C 242.625 100.632812 245.421875 101.101562 248.199219 101.609375 C 250.976562 102.113281 253.726562 102.652344 256.449219 103.222656 C 259.175781 103.796875 261.871094 104.402344 264.535156 105.042969 C 267.199219 105.683594 269.832031 106.359375 272.433594 107.0625 C 275.035156 107.769531 277.601562 108.507812 280.128906 109.277344 C 282.65625 110.046875 285.148438 110.847656 287.601562 111.679688 C 290.050781 112.511719 292.460938 113.375 294.832031 114.269531 C 297.199219 115.160156 299.523438 116.082031 301.800781 117.03125 C 304.082031 117.980469 306.3125 118.960938 308.5 119.964844 C 310.683594 120.972656 312.820312 122.003906 314.902344 123.0625 C 316.988281 124.121094 319.019531 125.207031 321 126.316406 C 322.980469 127.425781 324.90625 128.558594 326.777344 129.71875 C 328.648438 130.875 330.460938 132.054688 332.21875 133.257812 C 333.976562 134.460938 335.671875 135.6875 337.3125 136.929688 C 338.949219 138.175781 340.527344 139.441406 342.042969 140.726562 C 343.558594 142.011719 345.011719 143.3125 346.402344 144.636719 C 347.789062 145.957031 349.117188 147.292969 350.375 148.648438 C 351.636719 150 352.832031 151.371094 353.960938 152.753906 C 355.089844 154.136719 356.148438 155.535156 357.144531 156.945312 C 358.136719 158.355469 359.0625 159.777344 359.917969 161.210938 C 360.773438 162.644531 361.558594 164.085938 362.277344 165.539062 C 362.992188 166.992188 363.636719 168.453125 364.214844 169.921875 C 364.789062 171.390625 365.292969 172.867188 365.726562 174.347656 C 366.160156 175.828125 366.519531 177.316406 366.808594 178.808594 C 367.097656 180.296875 367.3125 181.789062 367.457031 183.285156 C 367.601562 184.78125 367.675781 186.28125 367.675781 187.777344 Z M 367.675781 187.777344 "/>
<path style=" stroke:none;fill-rule:nonzero;fill:rgb(100%,100%,100%);fill-opacity:1;" d="M 223.972656 217.453125 L 232.910156 171.324219 C 234.960938 160.894531 233.203125 153.109375 227.929688 148.261719 C 222.800781 143.558594 214.011719 141.210938 201.121094 141.210938 L 185.59375 141.210938 L 189.992188 118.292969 C 190.136719 117.410156 189.992188 116.53125 189.40625 115.796875 C 188.820312 115.0625 188.085938 114.765625 187.207031 114.765625 L 165.820312 114.765625 C 164.355469 114.765625 163.183594 115.796875 162.890625 117.117188 L 153.371094 166.035156 C 152.492188 160.453125 150.441406 155.753906 146.925781 151.933594 C 140.625 144.734375 130.8125 141.0625 117.480469 141.0625 L 76.320312 141.0625 C 74.855469 141.0625 73.683594 142.089844 73.390625 143.414062 L 54.199219 242.71875 C 54.054688 243.601562 54.199219 244.480469 54.785156 245.214844 C 55.371094 245.949219 56.105469 246.242188 56.984375 246.242188 L 78.515625 246.242188 C 79.980469 246.242188 81.152344 245.214844 81.445312 243.894531 L 86.132812 219.949219 L 102.101562 219.949219 C 110.449219 219.949219 117.628906 219.066406 123.046875 217.304688 C 128.761719 215.394531 133.886719 212.308594 138.429688 208.050781 C 142.089844 204.671875 145.167969 200.851562 147.511719 196.738281 L 143.703125 216.570312 C 143.554688 217.453125 143.703125 218.332031 144.289062 219.066406 C 144.875 219.800781 145.605469 220.09375 146.484375 220.09375 L 167.871094 220.09375 C 169.335938 220.09375 170.507812 219.066406 170.800781 217.746094 L 181.347656 163.390625 L 195.996094 163.390625 C 202.296875 163.390625 204.054688 164.566406 204.640625 165.15625 C 205.078125 165.59375 205.957031 167.359375 204.933594 172.792969 L 196.433594 216.714844 C 196.289062 217.597656 196.433594 218.480469 197.019531 219.214844 C 197.605469 219.949219 198.339844 220.242188 199.21875 220.242188 L 221.191406 220.242188 C 222.507812 219.800781 223.679688 218.773438 223.972656 217.453125 Z M 124.949219 179.257812 C 123.632812 186.160156 121.140625 191.15625 117.480469 193.945312 C 113.816406 196.738281 107.8125 198.207031 99.902344 198.207031 L 90.378906 198.207031 L 97.265625 162.65625 L 109.570312 162.65625 C 118.652344 162.65625 122.3125 164.566406 123.777344 166.183594 C 125.683594 168.53125 126.121094 173.085938 124.949219 179.257812 Z M 124.949219 179.257812 "/>
<path style=" stroke:none;fill-rule:nonzero;fill:rgb(100%,100%,100%);fill-opacity:1;" d="M 315.378906 151.933594 C 309.082031 144.734375 299.265625 141.0625 285.9375 141.0625 L 244.480469 141.0625 C 243.015625 141.0625 241.84375 142.089844 241.550781 143.414062 L 222.363281 242.570312 C 222.214844 243.453125 222.363281 244.335938 222.949219 245.070312 C 223.535156 245.804688 224.265625 246.097656 225.144531 246.097656 L 246.679688 246.097656 C 248.144531 246.097656 249.316406 245.070312 249.609375 243.746094 L 254.296875 219.800781 L 270.261719 219.800781 C 278.613281 219.800781 285.789062 218.921875 291.210938 217.15625 C 296.921875 215.246094 302.050781 212.164062 306.589844 207.902344 C 310.398438 204.378906 313.621094 200.410156 315.964844 196.152344 C 318.308594 191.890625 320.066406 187.191406 321.09375 182.046875 C 323.582031 169.269531 321.679688 159.277344 315.378906 151.933594 Z M 292.96875 179.257812 C 291.648438 186.160156 289.160156 191.15625 285.496094 193.945312 C 281.835938 196.738281 275.828125 198.207031 267.917969 198.207031 L 258.398438 198.207031 L 265.28125 162.65625 L 277.585938 162.65625 C 286.667969 162.65625 290.332031 164.566406 291.796875 166.183594 C 293.847656 168.53125 294.285156 173.085938 292.96875 179.257812 Z M 292.96875 179.257812 "/>
<path style=" stroke:none;fill-rule:nonzero;fill:rgb(0%,0%,1.568604%);fill-opacity:1;" d="M 109.570312 159.71875 C 117.773438 159.71875 123.195312 161.1875 125.976562 164.273438 C 128.757812 167.359375 129.34375 172.5 127.878906 179.84375 C 126.417969 187.484375 123.488281 193.066406 119.238281 196.296875 C 114.988281 199.527344 108.542969 201.144531 99.902344 201.144531 L 86.867188 201.144531 L 94.921875 159.71875 Z M 57.128906 243.160156 L 78.664062 243.160156 L 83.789062 216.863281 L 102.246094 216.863281 C 110.449219 216.863281 117.039062 215.980469 122.3125 214.21875 C 127.585938 212.457031 132.273438 209.664062 136.667969 205.550781 C 140.332031 202.171875 143.261719 198.5 145.457031 194.535156 C 147.65625 190.566406 149.265625 186.160156 150.144531 181.3125 C 152.488281 169.5625 150.730469 160.453125 145.019531 153.84375 C 139.304688 147.230469 130.222656 144 117.773438 144 L 76.320312 144 Z M 57.128906 243.160156 "/>
<path style=" stroke:none;fill-rule:nonzero;fill:rgb(0%,0%,1.568604%);fill-opacity:1;" d="M 165.964844 117.707031 L 187.351562 117.707031 L 182.226562 144 L 201.269531 144 C 213.28125 144 221.484375 146.058594 226.023438 150.316406 C 230.566406 154.578125 231.882812 161.335938 230.125 170.738281 L 221.191406 216.863281 L 199.511719 216.863281 L 208.007812 172.941406 C 209.03125 167.945312 208.59375 164.566406 206.980469 162.804688 C 205.371094 161.042969 201.707031 160.011719 196.289062 160.011719 L 179.148438 160.011719 L 168.164062 216.863281 L 146.777344 216.863281 Z M 165.964844 117.707031 "/>
<path style=" stroke:none;fill-rule:nonzero;fill:rgb(0%,0%,1.568604%);fill-opacity:1;" d="M 277.585938 159.71875 C 285.789062 159.71875 291.210938 161.1875 293.992188 164.273438 C 296.777344 167.359375 297.363281 172.5 295.898438 179.84375 C 294.433594 187.484375 291.503906 193.066406 287.253906 196.296875 C 283.007812 199.527344 276.5625 201.144531 267.921875 201.144531 L 254.882812 201.144531 L 262.941406 159.71875 L 277.589844 159.71875 Z M 225.144531 243.160156 L 246.679688 243.160156 L 251.804688 216.863281 L 270.261719 216.863281 C 278.464844 216.863281 285.058594 215.980469 290.332031 214.21875 C 295.605469 212.457031 300.292969 209.664062 304.6875 205.550781 C 308.347656 202.171875 311.277344 198.5 313.476562 194.535156 C 315.671875 190.566406 317.285156 186.160156 318.164062 181.3125 C 320.507812 169.5625 318.75 160.453125 313.035156 153.84375 C 307.324219 147.230469 298.242188 144 285.789062 144 L 244.335938 144 Z M 225.144531 243.160156 "/>
</g>
</svg>
