<?xml version="1.0" encoding="UTF-8"?>
<svg xmlns="http://www.w3.org/2000/svg" xmlns:xlink="http://www.w3.org/1999/xlink" width="375pt" height="374.999991pt" viewBox="0 0 375 374.999991" version="1.2">
<defs>
<clipPath id="clip1">
  <path d="M 27 228 L 155 228 L 155 369.75 L 27 369.75 Z M 27 228 "/>
</clipPath>
</defs>
<g id="surface1">
<path style=" stroke:none;fill-rule:nonzero;fill:rgb(94.509888%,35.289001%,14.118958%);fill-opacity:1;" d="M 62.636719 360.179688 L 0 362.351562 L 32.109375 329.613281 L 62.640625 360.179688 Z M 62.636719 360.179688 "/>
<path style=" stroke:none;fill-rule:nonzero;fill:rgb(94.509888%,35.289001%,14.118958%);fill-opacity:1;" d="M 346.765625 197.804688 C 335.132812 288.785156 252.140625 353.078125 161.410156 341.386719 C 70.679688 329.722656 6.578125 246.5 18.210938 155.519531 C 29.855469 64.535156 112.835938 0.25 203.582031 11.925781 C 294.3125 23.597656 358.425781 106.828125 346.765625 197.804688 "/>
<path style=" stroke:none;fill-rule:nonzero;fill:rgb(59.999084%,59.999084%,59.999084%);fill-opacity:1;" d="M 224.722656 129.449219 C 235.605469 141.050781 224.871094 168.480469 224.871094 168.480469 C 224.871094 168.480469 214.246094 207.257812 153.46875 257.546875 L 142.109375 246.390625 L 219.285156 167.304688 L 220.769531 165.285156 C 222.828125 161.925781 224.515625 129.222656 224.722656 129.449219 "/>
<path style="fill:none;stroke-width:1.918;stroke-linecap:round;stroke-linejoin:round;stroke:rgb(100%,100%,100%);stroke-opacity:1;stroke-miterlimit:4;" d="M 164.981289 87.53317 C 172.970962 96.02714 165.090265 116.109518 165.090265 116.109518 C 165.090265 116.109518 157.289867 144.499971 112.669868 181.318617 L 104.330324 173.150678 L 160.989321 115.248681 L 162.079082 113.770101 C 163.590409 111.310568 164.829296 87.367294 164.981289 87.53317 Z M 164.981289 87.53317 " transform="matrix(1.36211,0,0,1.365859,0.0000045,9.89129)"/>
<path style="fill-rule:nonzero;fill:rgb(39.99939%,39.99939%,39.99939%);fill-opacity:1;stroke-width:1.201;stroke-linecap:round;stroke-linejoin:round;stroke:rgb(100%,100%,100%);stroke-opacity:1;stroke-miterlimit:4;" d="M 92.099185 161.110403 L 164.860842 87.324395 C 168.560296 91.708657 169.340335 96.433249 168.270648 103.171227 C 167.550832 107.830041 159.489465 117.15053 159.489465 117.15053 L 104.330324 173.150678 " transform="matrix(1.36211,0,0,1.365859,0.0000045,9.89129)"/>
<path style=" stroke:none;fill-rule:nonzero;fill:rgb(100%,57.649231%,11.759949%);fill-opacity:1;" d="M 224.722656 129.515625 L 125.449219 229.945312 L 125.648438 229.753906 L 125.613281 229.765625 L 100.980469 205.425781 C 152.339844 141.363281 185.546875 129.417969 185.546875 129.417969 C 185.546875 129.417969 207.175781 120.953125 222.597656 127.523438 C 223.78125 128.160156 224.296875 128.523438 224.722656 129.519531 "/>
<path style="fill:none;stroke-width:1.918;stroke-linecap:round;stroke-linejoin:round;stroke:rgb(100%,100%,100%);stroke-opacity:1;stroke-miterlimit:4;" d="M 164.981289 87.581788 L 92.099185 161.110403 L 92.245443 160.970267 L 92.219632 160.978846 L 74.135327 143.158668 C 111.841076 96.255934 136.220188 87.51029 136.220188 87.51029 C 136.220188 87.51029 152.099161 81.312838 163.42121 86.123228 C 164.290151 86.589395 164.6687 86.855368 164.981289 87.584648 Z M 164.981289 87.581788 " transform="matrix(1.36211,0,0,1.365859,0.0000045,9.89129)"/>
<path style=" stroke:none;fill-rule:nonzero;fill:rgb(59.999084%,59.999084%,59.999084%);fill-opacity:1;" d="M 153.46875 257.546875 C 129.777344 277.109375 99.464844 307.839844 58.265625 329.269531 L 67.429688 368.550781 L 28.589844 330.183594 L 125.445312 229.945312 "/>
<g clip-path="url(#clip1)" clip-rule="nonzero">
<path style="fill:none;stroke-width:1.918;stroke-linecap:round;stroke-linejoin:round;stroke:rgb(100%,100%,100%);stroke-opacity:1;stroke-miterlimit:4;" d="M 112.669868 181.318617 C 95.2767 195.64111 73.022623 218.140123 42.776005 233.829659 L 49.503848 262.589043 L 20.989377 234.498881 L 92.096317 161.110403 " transform="matrix(1.36211,0,0,1.365859,0.0000045,9.89129)"/>
</g>
<path style="fill-rule:nonzero;fill:rgb(94.509888%,35.289001%,14.118958%);fill-opacity:1;stroke-width:1.918;stroke-linecap:round;stroke-linejoin:round;stroke:rgb(100%,100%,100%);stroke-opacity:1;stroke-miterlimit:4;" d="M 74.622851 143.398901 L 92.288459 160.998866 L 51.47689 169.838887 L 74.232832 143.07859 L 74.625719 143.398901 Z M 74.622851 143.398901 " transform="matrix(1.36211,0,0,1.365859,0.0000045,9.89129)"/>
<path style=" stroke:none;fill-rule:nonzero;fill:rgb(59.999084%,59.999084%,59.999084%);fill-opacity:1;" d="M 215.242188 100.375 C 212.882812 121.738281 228.222656 140.96875 249.523438 143.351562 C 270.816406 145.722656 290.007812 130.328125 292.390625 108.976562 C 294.761719 87.621094 279.394531 68.367188 258.09375 65.992188 C 236.789062 63.632812 217.609375 79.007812 215.242188 100.375 "/>
<path style="fill:none;stroke-width:1.918;stroke-linecap:round;stroke-linejoin:round;stroke:rgb(100%,100%,100%);stroke-opacity:1;stroke-miterlimit:4;" d="M 158.021154 66.246764 C 156.289007 81.887682 167.550832 95.967082 183.18891 97.711635 C 198.821253 99.447608 212.910722 88.176652 214.660076 72.544314 C 216.400827 56.909116 205.118927 42.812557 189.480849 41.073724 C 173.839903 39.346331 159.759037 50.602987 158.021154 66.246764 Z M 158.021154 66.246764 " transform="matrix(1.36211,0,0,1.365859,0.0000045,9.89129)"/>
<path style=" stroke:none;fill-rule:nonzero;fill:rgb(39.99939%,39.99939%,39.99939%);fill-opacity:1;" d="M 286.820312 126.179688 C 293.96875 115.6875 293.601562 100 292.160156 95.351562 C 290.402344 89.65625 286.453125 80.402344 279.574219 75.589844 L 243.191406 109.199219 C 243.191406 109.199219 271.15625 139.328125 271.878906 139.425781 C 272.175781 139.460938 280.28125 135.742188 286.820312 126.179688 "/>
<path style="fill:none;stroke-width:1.918;stroke-linecap:round;stroke-linejoin:round;stroke:rgb(100%,100%,100%);stroke-opacity:1;stroke-miterlimit:4;" d="M 210.570603 85.139414 C 215.818665 77.457662 215.549092 65.972212 214.490876 62.568904 C 213.200369 58.399136 210.30103 51.623979 205.250846 48.100554 L 178.540217 72.70733 C 178.540217 72.70733 199.070751 94.765914 199.601292 94.837412 C 199.819245 94.863152 205.769916 92.140505 210.570603 85.139414 Z M 205.179151 65.863535 C 205.179151 65.863535 207.74009 72.169664 204.49088 77.077292 Z M 205.179151 65.863535 " transform="matrix(1.36211,0,0,1.365859,0.0000045,9.89129)"/>
<path style=" stroke:none;fill-rule:nonzero;fill:rgb(39.99939%,39.99939%,39.99939%);fill-opacity:1;" d="M 142.96875 246.402344 L 102.816406 253.558594 L 127.054688 228.304688 "/>
<path style="fill:none;stroke-width:1.918;stroke-linecap:round;stroke-linejoin:round;stroke:rgb(100%,100%,100%);stroke-opacity:1;stroke-miterlimit:4;" d="M 104.961239 173.159257 L 75.48319 178.398636 L 93.277848 159.909235 M 75.308254 143.530458 L 112.790315 178.799025 " transform="matrix(1.36211,0,0,1.365859,0.0000045,9.89129)"/>
</g>
</svg>
