<?xml version="1.0" encoding="UTF-8"?>
<svg xmlns="http://www.w3.org/2000/svg" xmlns:xlink="http://www.w3.org/1999/xlink" width="375pt" height="374.999991pt" viewBox="0 0 375 374.999991" version="1.2">
<defs>
<clipPath id="clip1">
  <path d="M 204 6.148438 L 281 6.148438 L 281 186 L 204 186 Z M 204 6.148438 "/>
</clipPath>
<clipPath id="clip2">
  <path d="M 6.148438 100 L 186 100 L 186 177 L 6.148438 177 Z M 6.148438 100 "/>
</clipPath>
<clipPath id="clip3">
  <path d="M 110 6.148438 L 186 6.148438 L 186 82 L 110 82 Z M 110 6.148438 "/>
</clipPath>
<clipPath id="clip4">
  <path d="M 6.148438 195 L 82 195 L 82 272 L 6.148438 272 Z M 6.148438 195 "/>
</clipPath>
</defs>
<g id="surface1">
<g clip-path="url(#clip1)" clip-rule="nonzero">
<path style=" stroke:none;fill-rule:nonzero;fill:rgb(19.999695%,82.749939%,45.878601%);fill-opacity:1;" d="M 280.644531 44.007812 C 280.644531 23.101562 263.691406 6.148438 242.785156 6.148438 C 221.875 6.148438 204.921875 23.101562 204.921875 44.007812 C 204.921875 55.878906 204.921875 136.210938 204.921875 148.128906 C 204.921875 169.039062 221.875 185.992188 242.785156 185.992188 C 263.691406 185.992188 280.644531 169.039062 280.644531 148.128906 C 280.644531 136.210938 280.644531 55.878906 280.644531 44.007812 Z M 280.644531 44.007812 "/>
</g>
<path style=" stroke:none;fill-rule:nonzero;fill:rgb(19.999695%,82.749939%,45.878601%);fill-opacity:1;" d="M 375.300781 148.128906 C 375.300781 169.039062 358.347656 185.992188 337.4375 185.992188 C 326.128906 185.992188 299.578125 185.992188 299.578125 185.992188 C 299.578125 185.992188 299.578125 157.726562 299.578125 148.128906 C 299.578125 127.21875 316.527344 110.265625 337.4375 110.265625 C 358.347656 110.265625 375.300781 127.21875 375.300781 148.128906 Z M 375.300781 148.128906 "/>
<g clip-path="url(#clip2)" clip-rule="nonzero">
<path style=" stroke:none;fill-rule:nonzero;fill:rgb(25.099182%,76.858521%,100%);fill-opacity:1;" d="M 44.007812 100.800781 C 23.101562 100.800781 6.148438 117.753906 6.148438 138.664062 C 6.148438 159.574219 23.101562 176.527344 44.007812 176.527344 C 55.878906 176.527344 136.210938 176.527344 148.128906 176.527344 C 169.039062 176.527344 185.992188 159.574219 185.992188 138.664062 C 185.992188 117.753906 169.039062 100.800781 148.128906 100.800781 C 136.210938 100.800781 55.878906 100.800781 44.007812 100.800781 Z M 44.007812 100.800781 "/>
</g>
<g clip-path="url(#clip3)" clip-rule="nonzero">
<path style=" stroke:none;fill-rule:nonzero;fill:rgb(25.099182%,76.858521%,100%);fill-opacity:1;" d="M 148.128906 6.148438 C 169.039062 6.148438 185.992188 23.101562 185.992188 44.007812 C 185.992188 55.320312 185.992188 81.871094 185.992188 81.871094 C 185.992188 81.871094 157.726562 81.871094 148.128906 81.871094 C 127.21875 81.871094 110.265625 64.917969 110.265625 44.007812 C 110.265625 23.101562 127.21875 6.148438 148.128906 6.148438 Z M 148.128906 6.148438 "/>
</g>
<path style=" stroke:none;fill-rule:nonzero;fill:rgb(91.369629%,11.759949%,38.819885%);fill-opacity:1;" d="M 100.800781 337.496094 C 100.800781 358.375 117.753906 375.300781 138.664062 375.300781 C 159.574219 375.300781 176.527344 358.375 176.527344 337.496094 C 176.527344 325.644531 176.527344 245.425781 176.527344 233.527344 C 176.527344 212.644531 159.574219 195.722656 138.664062 195.722656 C 117.753906 195.722656 100.800781 212.644531 100.800781 233.527344 C 100.800781 245.425781 100.800781 325.644531 100.800781 337.496094 Z M 100.800781 337.496094 "/>
<g clip-path="url(#clip4)" clip-rule="nonzero">
<path style=" stroke:none;fill-rule:nonzero;fill:rgb(91.369629%,11.759949%,38.819885%);fill-opacity:1;" d="M 6.148438 233.527344 C 6.148438 212.644531 23.101562 195.722656 44.007812 195.722656 C 55.320312 195.722656 81.871094 195.722656 81.871094 195.722656 C 81.871094 195.722656 81.871094 223.9375 81.871094 233.527344 C 81.871094 254.40625 64.917969 271.332031 44.007812 271.332031 C 23.101562 271.332031 6.148438 254.40625 6.148438 233.527344 Z M 6.148438 233.527344 "/>
</g>
<path style=" stroke:none;fill-rule:nonzero;fill:rgb(100%,75.689697%,2.749634%);fill-opacity:1;" d="M 337.4375 280.644531 C 358.347656 280.644531 375.300781 263.691406 375.300781 242.785156 C 375.300781 221.875 358.347656 204.921875 337.4375 204.921875 C 325.570312 204.921875 245.234375 204.921875 233.316406 204.921875 C 212.410156 204.921875 195.457031 221.875 195.457031 242.785156 C 195.457031 263.691406 212.410156 280.644531 233.316406 280.644531 C 245.226562 280.644531 325.570312 280.644531 337.4375 280.644531 Z M 337.4375 280.644531 "/>
<path style=" stroke:none;fill-rule:nonzero;fill:rgb(100%,75.689697%,2.749634%);fill-opacity:1;" d="M 233.316406 375.300781 C 212.410156 375.300781 195.457031 358.347656 195.457031 337.4375 C 195.457031 326.125 195.457031 299.578125 195.457031 299.578125 C 195.457031 299.578125 223.71875 299.578125 233.316406 299.578125 C 254.226562 299.578125 271.179688 316.527344 271.179688 337.4375 C 271.179688 358.347656 254.226562 375.300781 233.316406 375.300781 Z M 233.316406 375.300781 "/>
</g>
</svg>
